<svg width="742" height="729" viewBox="165 305 742 729" fill="none" xmlns="http://www.w3.org/2000/svg">
<path d="M198.93 775.565C194.389 762.692 191.056 750.274 187.927 734.421C187.925 734.413 187.923 734.405 187.921 734.396C187.478 732.128 187.045 729.788 186.619 727.366C183.358 707.881 179.569 682.241 180.904 643.479C182.604 600.546 193.255 567.61 201.219 548.671C202.739 545.112 204.071 541.419 207.788 532.09C209.668 527.432 212.079 521.594 215.652 513.912C216.76 511.534 217.976 508.995 219.322 506.285C222.342 500.21 226.061 493.16 230.768 485.192C245.992 458.56 275.715 419.736 310.94 392.322C332.03 375.445 354.243 362.415 371.752 354.007C397.362 341.684 423.63 333.022 452.806 327.397C479.536 322.329 508.84 319.786 542.492 321.801C568.318 323.392 593.054 329.006 616.961 337.283C619.993 338.335 623.029 339.434 626.058 340.578C644.617 347.596 662.868 356.191 681.585 366.457C683.919 367.738 686.256 369.044 688.595 370.375C726.132 392.012 754.073 412.742 781.717 439.288C792.482 449.766 803.035 461.236 813.478 474.583C830.066 495.537 850.607 528.583 864.464 564.777C865.655 567.844 866.814 570.944 867.922 574.044C867.928 574.059 867.933 574.075 867.939 574.091C880.008 607.439 886.088 642.002 888.117 667.473C891.03 708.037 888.759 723.486 888.101 736.282C887.717 741.092 887.28 745.551 886.55 750.848C884.021 769.898 876.929 798.332 865.245 825.409C865.201 825.513 865.158 825.616 865.114 825.72C863.19 830.227 859.761 833.022 857.609 831.998C855.452 830.974 855.342 826.629 857.217 822.259C863.216 808.315 868.056 794.197 871.525 781.403C869.757 780.19 869.225 776.368 870.258 772.262C872.568 762.077 879.975 729.512 875.615 679.191C875.4 682.649 875.119 685.536 874.825 688.061C874.477 691.024 874.138 693.286 873.836 695.227C873.199 699.274 872.747 701.945 872.261 706.691C871.494 717.701 869.978 734.968 866.465 752.845C865.59 757.364 862.913 760.59 860.627 760.065C858.337 759.537 857.287 755.572 858.143 751.193C858.16 751.108 858.176 751.022 858.193 750.936C861.607 733.71 863.177 716.364 863.946 705.156C864.152 702.306 864.319 699.852 864.449 698.003C864.553 696.526 864.676 694.68 864.814 693.653C864.833 693.517 864.87 693.257 864.927 692.947C864.928 692.942 864.929 692.937 864.931 692.931C864.962 692.758 865.119 691.873 865.454 690.924C865.522 690.733 865.673 690.316 865.916 689.831C865.934 689.706 865.952 689.581 865.97 689.456C866.217 687.716 866.456 685.936 866.667 684.006C867.372 676.477 868.656 664.426 866.088 639.426C863.611 616.576 855.362 577.499 832.539 534.014C833.929 537.022 835.282 540.05 836.594 543.086C839.906 550.746 842.976 558.507 845.784 566.376C846.858 569.389 847.876 572.365 848.877 575.418C850.488 580.333 851.992 585.283 853.387 590.26C854.331 593.626 855.226 597.008 856.066 600.396C856.068 600.404 856.07 600.411 856.072 600.419C857.237 605.118 858.306 609.862 859.272 614.651C859.606 616.329 859.925 617.987 860.23 619.635C861.443 626.201 862.468 632.674 863.185 640.176C863.25 641.092 863.299 642.09 863.324 642.835C863.352 643.636 863.371 644.408 863.38 645.138C863.388 645.782 863.388 646.396 863.39 646.985C863.39 647.064 863.39 647.143 863.39 647.222C863.391 647.88 863.393 648.509 863.394 649.114C863.395 649.717 863.394 650.298 863.401 650.868C863.402 650.873 863.402 650.879 863.403 650.884C863.411 651.48 863.417 651.932 863.436 652.562C863.46 653.353 863.485 654.032 863.524 654.852C863.562 655.646 863.607 656.473 863.655 657.307C863.704 658.142 863.756 658.99 863.809 659.852C863.863 660.713 863.916 661.589 863.97 662.471C864.024 663.353 864.08 664.246 864.131 665.144C864.183 666.043 864.231 666.951 864.277 667.864C864.383 669.965 864.054 672.01 863.358 673.529C862.662 675.049 861.666 675.919 860.595 675.968C859.522 676.017 858.453 675.243 857.598 673.833C856.744 672.421 856.173 670.486 855.982 668.445C855.93 667.89 855.875 667.331 855.82 666.771C855.787 666.438 855.755 666.102 855.722 665.768C855.632 664.869 855.535 663.96 855.439 663.047C855.344 662.134 855.247 661.212 855.149 660.281C855.05 659.347 854.949 658.4 854.85 657.439C854.752 656.481 854.654 655.5 854.56 654.504C854.467 653.531 854.37 652.421 854.292 651.426C854.234 650.699 854.176 649.801 854.128 649.052C854.078 648.27 854.034 647.498 853.994 646.754C853.953 646.008 853.917 645.286 853.88 644.597C853.876 644.523 853.871 644.449 853.867 644.375C853.834 643.766 853.8 643.177 853.764 642.621C853.723 641.999 853.678 641.411 853.629 640.854C853.575 640.24 853.532 639.868 853.477 639.412C852.616 633.416 851.151 626.056 849.498 619.104C849.291 618.23 849.082 617.361 848.872 616.503C847.75 611.944 846.527 607.412 845.211 602.92C844.254 599.653 843.245 596.395 842.186 593.146C840.631 588.373 838.966 583.615 837.198 578.894C836.102 575.965 834.99 573.106 833.821 570.212C830.763 562.646 827.446 555.179 823.882 547.793C820.328 540.428 816.509 533.116 812.476 525.916C808.458 518.737 804.063 511.396 799.654 504.402C796.42 499.256 793.08 493.953 789.906 489.107C788.199 486.499 786.494 483.957 784.782 481.468C784.776 481.459 784.771 481.45 784.765 481.441C783.268 479.265 781.762 477.129 780.234 475.027C776.955 470.517 773.594 466.186 770.089 461.972C766.582 457.758 762.953 453.685 759.156 449.711C755.38 445.76 751.412 441.879 747.357 438.168C743.272 434.432 739.155 430.901 734.714 427.326C728.847 422.613 722.891 418.205 716.572 413.853C710.337 409.563 703.853 405.427 697.278 401.533C694.977 400.17 692.653 398.825 690.305 397.506C690.296 397.501 690.287 397.496 690.278 397.491C685.913 395.039 681.561 392.716 677.104 390.45C675.128 389.446 673.138 388.457 671.133 387.484C666.158 385.069 661.153 382.777 656.119 380.603C648.961 377.512 641.815 374.683 634.404 371.997C627.059 369.333 619.412 366.814 611.708 364.472C604.83 362.383 597.806 360.462 590.911 358.81C589.081 358.371 587.25 357.949 585.418 357.543C576.755 355.623 568.213 354.124 559.775 353.078C551.298 352.026 542.815 351.408 534.226 351.203C525.676 351.001 517.011 351.209 508.296 351.821C499.566 352.437 490.962 353.439 482.293 354.836C473.66 356.23 465.087 357.999 456.51 360.167C451.756 361.367 446.692 362.741 441.968 364.13C437.202 365.529 432.471 367.022 427.861 368.588C425.988 369.224 424.135 369.871 422.293 370.534C419.61 371.501 416.967 372.494 414.383 373.51C410.025 375.224 405.811 377.011 401.777 378.857C397.746 380.702 393.889 382.611 390.229 384.573C386.443 386.608 383.382 388.388 379.794 390.636C370.994 395.97 365.642 399.367 359.758 403.249C358.602 404.017 357.428 404.812 356.213 405.649C349.24 410.406 342.453 415.395 335.947 420.558C329.384 425.765 323.105 431.139 316.981 436.793C310.897 442.412 305.007 448.277 299.353 454.36C293.722 460.421 288.322 466.697 283.149 473.2C277.989 479.681 272.945 486.562 268.4 493.279C265.76 497.172 263.013 501.408 260.576 505.347C258.81 508.199 257.105 511.052 255.473 513.887C254.805 515.046 254.162 516.18 253.525 517.321C251.413 521.105 249.435 524.859 247.606 528.561C247.536 528.701 247.467 528.841 247.398 528.981C245.516 532.81 243.804 536.553 242.246 540.249C240.692 543.934 239.258 547.657 237.957 551.371C236.612 555.23 235.588 558.449 234.399 562.639C233.631 565.363 232.92 568.037 232.25 570.706C231.249 574.693 230.329 578.717 229.499 582.749C228.67 586.777 227.937 590.776 227.288 594.812C227.079 596.109 226.868 597.478 226.678 598.779C226.092 602.796 225.598 606.789 225.195 610.781C224.792 614.768 224.485 618.706 224.265 622.654C224.046 626.613 223.918 630.504 223.878 634.466C223.81 641.215 223.76 647.641 223.816 653.28C223.869 658.985 224.018 664.307 224.283 669.491C224.333 670.461 224.387 671.431 224.446 672.401C224.697 676.578 225.025 680.681 225.436 684.716C225.943 689.688 226.572 694.559 227.331 699.423C228.083 704.244 228.973 709.099 229.978 713.844C230.995 718.635 232.086 723.198 233.393 728.069C234.687 732.886 236.161 737.746 237.907 743.011C239.637 748.227 241.585 753.671 243.661 759.115C245.738 764.56 247.959 770.053 250.263 775.448C252.574 780.862 254.996 786.241 257.49 791.497C260.001 796.789 262.594 801.982 265.288 807.108C267.979 812.229 270.86 817.431 273.672 822.27C278.212 830.085 283.041 837.713 288.165 845.145C293.27 852.55 298.677 859.772 304.349 866.758C310.02 873.742 315.96 880.496 322.177 887.026C328.371 893.533 334.848 899.819 341.55 905.826C343.033 907.155 344.538 908.48 346.036 909.775C351.32 914.347 356.801 918.798 362.339 923.018C362.377 923.048 362.415 923.077 362.453 923.106C369.629 928.566 376.844 933.62 384.388 938.463C387.139 940.227 389.813 941.889 392.564 943.541C395.317 945.194 398.059 946.783 400.815 948.327C403.584 949.878 406.37 951.381 409.143 952.823C410.222 953.384 411.295 953.933 412.368 954.474C414.085 955.34 415.794 956.18 417.517 957.005C420.084 958.235 422.644 959.411 425.447 960.654C425.702 960.768 425.958 960.881 426.214 960.994C429.287 962.349 432.844 963.871 436.122 965.244C444.771 968.875 453.45 972.079 462.361 974.928C471.272 977.775 480.319 980.229 489.473 982.283C493.074 983.091 496.694 983.836 500.316 984.519C505.928 985.579 511.678 986.507 517.383 987.275C526.824 988.545 536.311 989.414 545.902 989.885C555.444 990.353 565.066 990.422 574.656 990.083C584.21 989.747 593.852 988.996 603.339 987.844C613.881 986.565 624.327 984.77 634.711 982.43C645.064 980.098 655.324 977.228 665.368 973.845C675.446 970.45 685.334 966.535 694.999 962.104C704.67 957.669 714.107 952.723 723.271 947.27C728.751 944.01 734.138 940.567 739.404 936.955C742.083 934.897 744.616 932.876 747.025 930.896C764.703 916.162 776.328 904.22 790.327 887.462C791.645 885.827 792.663 884.482 793.898 882.82C794.134 882.503 794.384 882.167 794.637 881.824C796.239 879.648 798.076 877.133 800.618 873.637C805.649 866.684 813.396 855.986 822.766 841.611C825.132 837.973 827.51 836.07 828.164 837.484C828.618 838.476 828.081 840.848 826.874 843.44C829.588 838.901 832.163 834.339 834.625 829.702C835.609 827.85 836.718 826.192 837.727 825.108C838.663 824.104 839.443 823.671 839.936 823.897C839.936 823.897 839.936 823.897 839.936 823.897C839.975 823.915 840.012 823.936 840.047 823.962C840.528 824.317 840.624 825.426 840.304 827.043C839.983 828.659 839.269 830.647 838.312 832.556C835.781 837.607 833.11 842.592 830.312 847.5C827.523 852.39 824.602 857.216 821.556 861.956C818.522 866.677 815.336 871.357 812.035 875.931C808.758 880.472 805.313 884.982 801.77 889.363C798.215 893.76 794.564 898.033 790.774 902.223C788.507 904.731 786.148 907.252 783.803 909.676C782.929 910.58 782.072 911.457 781.208 912.328C780.503 913.04 779.79 913.752 779.053 914.48C771.287 922.163 763.027 929.49 754.478 936.285C745.877 943.123 736.922 949.482 727.649 955.348C718.367 961.219 708.78 966.59 698.927 971.444C689.078 976.296 678.975 980.628 668.655 984.431C658.368 988.222 647.835 991.494 637.198 994.212C628.954 996.319 620.722 998.083 612.389 999.537C609.136 1000.21 605.899 1000.82 602.69 1001.37C593.356 1002.98 583.92 1004.29 574.598 1005.2C591.247 1004.15 604.519 1002.05 616.974 999.486C618.646 999.139 620.303 998.781 621.952 998.413C638.759 994.585 654.789 990.039 675.686 982.121C735.008 958.592 762.527 931.811 779.384 916.573C795.971 900.59 802.237 892.88 808.712 886.169C817.928 876.736 832.373 855.61 838.215 844.196C840.426 840.083 842.999 837.22 844.129 837.793C845.246 838.382 844.477 842.246 842.234 846.435C836.015 858.673 820.178 881.921 808.874 893.169C803.871 898.148 798.764 904.519 782.194 920.503C765.315 935.722 737.704 962.798 677.363 986.861C656.908 994.645 641.269 999.19 624.398 1003.14C622.742 1003.52 621.071 1003.89 619.381 1004.25C619.37 1004.26 619.359 1004.26 619.349 1004.26C603.783 1007.53 586.529 1010.33 563.074 1010.93C508.53 1014.11 437.66 992.336 422.025 984.985C418.826 983.749 415.776 982.542 412.569 981.221C409.166 979.817 405.572 978.28 401.466 976.407C390.783 971.433 376.541 964.7 354.587 950.002C347.953 945.518 340.419 940.045 332.461 933.637C320.078 924.627 308.612 914.984 299.241 906.001C291.132 898.234 283.735 890.947 276.752 883.668C274.741 881.571 272.725 879.431 270.744 877.277C265.966 872.085 261.314 866.73 257.017 861.326C253.597 857.028 250.042 852.451 246.415 847.531C233.291 829.604 218.431 806.762 206.594 773.638C194.187 738.522 189.103 706.665 187.455 679.226C188.536 699.416 190.75 714.922 193.006 727.741C193.436 730.161 193.873 732.476 194.313 734.701C197.459 750.398 200.548 761.685 204.669 773.465C225.607 829.362 240.595 847.086 255.659 866.923C259.815 872.07 264.579 877.555 269.907 883.297C280.531 894.752 293.382 907.151 307.704 919.62C321.044 931.253 336.954 943.097 354.733 953.987C354.74 953.991 354.747 953.996 354.753 954.001C358.215 956.122 361.757 958.216 365.371 960.273C376.625 966.679 388.45 972.646 400.642 978.064C412.27 983.234 424.097 987.837 435.929 991.861C438.537 992.748 441.669 993.767 445.268 994.865C466.042 1001.19 503.262 1010.64 549.774 1012.54C559.996 1012.96 570.624 1013.16 582.747 1012.69C586.452 1012.54 590.295 1012.33 594.295 1012.03C611.552 1010.67 632.644 1007.95 659.619 999.797C681.847 993.072 708.182 981.949 733.217 966.374C745.552 958.739 757.592 950.084 768.8 940.785C802.664 912.627 828.066 880.196 846.952 844.548C846.956 844.541 846.96 844.534 846.964 844.527C849.177 840.339 851.746 837.426 852.812 838.128C853.873 838.828 853.009 842.927 850.762 847.179C831.597 883.362 805.881 916.178 771.64 944.704C760.441 954.013 748.332 962.759 735.871 970.508C710.363 986.461 683.264 997.951 660.481 1004.83C632.624 1013.25 610.804 1016.01 593.042 1017.36C588.761 1017.67 584.705 1017.88 580.889 1018.01C568.703 1018.42 558.586 1018.19 548.744 1017.79C503.017 1015.87 466.59 1006.95 445.375 1000.65C441.617 999.529 438.317 998.479 435.514 997.543C423.001 993.367 410.487 988.557 398.142 983.094C386.608 977.993 375.348 972.383 364.547 966.348C360.902 964.311 357.314 962.228 353.795 960.11C353.787 960.106 353.78 960.102 353.772 960.098C335.642 949.199 319.097 937.102 305.226 925.157C291.138 913.024 279.267 901.807 268.684 890.739C262.999 884.78 257.719 878.877 252.724 872.803C236.262 851.597 220.368 832.526 198.93 775.565ZM822.616 850.357C816.557 859.373 811.498 866.494 807.693 871.831C811.054 867.409 814.298 862.891 817.407 858.304C819.179 855.689 820.924 853.025 822.616 850.357ZM335.001 928.327C336.465 929.404 337.949 930.479 339.447 931.547C335.441 928.425 331.536 925.246 327.66 921.952C322.912 917.916 318.304 913.789 313.768 909.508C320.898 916.371 328.097 922.703 335.001 928.327ZM212.34 771.552C223.273 802.273 236.43 823.093 249.025 840.783C252.676 845.867 256.347 850.717 260.03 855.436C261.557 857.392 263.115 859.321 264.713 861.245C256.354 849.387 249.414 837.951 244.124 828.402C228.493 799.788 222.689 782 217.755 766.543C216.372 762.056 215.123 757.702 213.923 753.255C212.642 749.661 211.378 745.902 210.192 742.067C208.527 736.702 206.898 730.852 205.514 725.228C204.122 719.588 202.874 713.812 201.818 708.1C200.752 702.343 199.865 696.604 199.142 690.867C198.46 685.468 197.928 680.068 197.532 674.831C197.509 674.531 197.487 674.231 197.465 673.931C197.059 668.393 196.805 662.995 196.634 658.03C196.459 652.974 196.372 648.762 196.246 645.023C196.09 640.352 196.05 635.538 196.129 630.786C196.207 626.03 196.403 621.286 196.714 616.554C197.025 611.822 197.445 607.139 197.98 602.441C198.152 600.923 198.346 599.33 198.54 597.833C198.629 597.142 198.72 596.451 198.814 595.762C197.167 604.852 195.828 614.343 194.879 624.218C193.515 638.458 192.81 653.766 193.363 670.621C194.373 699.316 198.803 732.853 212.34 771.552ZM251.25 466.769C248.96 470.111 245.708 475.01 241.774 481.535C240.844 483.079 239.876 484.719 238.875 486.449C238.9 486.409 238.925 486.367 238.95 486.328C241.618 482.152 244.147 478.367 246.935 474.348C251.934 467.146 257.009 460.399 262.427 453.709C267.836 447.035 273.497 440.557 279.363 434.329C285.265 428.062 291.383 422.033 297.688 416.259C304.033 410.448 310.523 404.934 317.238 399.621C319.382 397.924 321.551 396.248 323.737 394.597C318.729 398.115 313.651 401.939 308.421 406.157C304.239 409.531 299.975 413.144 295.577 417.071C293.897 418.572 291.851 420.407 289.524 422.568C280.311 431.156 266.067 445.221 251.25 466.769ZM381.699 358.081C383.5 357.206 385.302 356.356 387.09 355.538C392.183 353.211 397.231 351.104 402.222 349.171C405.727 347.813 409.22 346.537 412.684 345.334C414.146 344.826 415.611 344.327 417.06 343.846C419.491 343.038 421.912 342.26 424.326 341.514C407.302 346.408 391.011 352.532 374.715 360.364C374.5 360.467 374.285 360.573 374.069 360.678C376.663 359.758 379.206 358.894 381.699 358.081Z" fill="#3DAE79" fill-opacity="0.99"/>
<ellipse cx="539.5" cy="674.5" rx="97.5" ry="99.5" fill="#3DAE79" fill-opacity="0.99"/>
<path d="M452.327 756.125C449.279 752.768 446.844 749.244 444.113 744.647C444.111 744.645 444.11 744.642 444.108 744.64C443.719 743.983 443.326 743.301 442.925 742.594C439.749 736.891 435.748 729.389 431.506 717.522C426.865 704.328 426.698 693.052 427.433 686.449C427.577 685.208 427.58 683.954 427.532 680.768C427.515 679.179 427.494 677.179 427.568 674.5C427.591 673.672 427.625 672.783 427.673 671.828C427.782 669.684 427.964 667.178 428.305 664.272C429.313 654.647 432.378 639.596 438.26 626.814C441.726 619.037 445.974 612.113 449.616 607.175C454.939 599.948 461.019 593.676 468.334 587.805C475.049 582.452 482.826 577.404 492.472 572.928C499.886 569.504 507.809 567.884 515.749 567.287C516.76 567.211 517.782 567.149 518.792 567.106C525.551 566.81 532.357 567.151 539.5 567.779C539.763 567.802 540.026 567.825 540.289 567.849C553.505 569.143 563.894 570.824 575.108 574.333C579.48 575.738 583.936 577.48 588.562 579.833C595.89 583.498 605.724 590.277 613.921 598.82C614.622 599.542 615.315 600.275 615.994 601.016C615.998 601.02 616.001 601.024 616.005 601.027C623.355 608.988 629.089 618.01 632.709 624.893C638.384 635.898 639.799 640.419 641.319 644.04C641.852 645.415 642.329 646.712 642.808 648.267C644.568 653.883 646.009 662.719 646.129 671.704C646.13 671.738 646.131 671.772 646.131 671.806C646.157 673.302 644.966 674.512 643.516 674.5C642.063 674.488 640.899 673.323 640.875 671.908C640.803 667.385 640.425 662.943 639.823 659.035C638.559 659.013 637.473 658.112 637.27 656.878C636.703 653.856 634.345 644.199 626.699 631.51C626.924 632.515 627.069 633.37 627.174 634.126C627.296 635.013 627.358 635.701 627.408 636.292C627.508 637.521 627.564 638.331 627.882 639.683C628.821 642.732 630.359 647.489 631.47 652.626C631.755 653.927 630.802 655.215 629.378 655.491C627.953 655.766 626.608 654.989 626.34 653.768C626.335 653.745 626.33 653.721 626.324 653.697C625.283 648.883 623.786 644.241 622.859 641.224C622.626 640.455 622.432 639.79 622.293 639.287C622.182 638.886 622.043 638.381 622.009 638.082C622.005 638.042 621.997 637.966 621.995 637.872C621.995 637.87 621.996 637.869 621.996 637.867C621.994 637.815 621.987 637.547 622.077 637.218C622.095 637.151 622.137 637.006 622.225 636.818C622.222 636.781 622.219 636.744 622.215 636.707C622.171 636.192 622.121 635.665 622.044 635.102C621.713 632.918 621.118 629.438 618.05 622.883C615.213 616.916 608.787 607.294 597.745 598.454C598.42 599.134 599.088 599.822 599.747 600.514C601.405 602.258 603.012 604.048 604.554 605.884C605.144 606.587 605.717 607.288 606.29 608.007C607.213 609.165 608.114 610.346 608.984 611.54C609.573 612.347 610.15 613.163 610.713 613.988C610.715 613.989 610.716 613.991 610.718 613.993C611.498 615.136 612.253 616.297 612.986 617.484C613.241 617.902 613.489 618.314 613.733 618.725C614.703 620.359 615.617 621.993 616.484 623.961C616.577 624.208 616.668 624.483 616.731 624.691C616.799 624.913 616.86 625.13 616.914 625.337C616.961 625.519 617.003 625.695 617.044 625.863C617.049 625.885 617.055 625.908 617.06 625.93C617.106 626.118 617.151 626.297 617.193 626.468C617.236 626.638 617.276 626.802 617.321 626.961C617.321 626.963 617.322 626.964 617.323 626.965C617.37 627.131 617.406 627.257 617.462 627.428C617.533 627.643 617.597 627.826 617.68 628.044C617.761 628.255 617.848 628.473 617.94 628.691C618.031 628.909 618.126 629.129 618.225 629.352C618.323 629.575 618.424 629.802 618.526 630.029C618.629 630.256 618.734 630.486 618.838 630.716C618.943 630.946 619.047 631.18 619.152 631.414C619.394 631.955 619.39 632.593 619.131 633.183C618.872 633.772 618.383 634.263 617.774 634.558C617.164 634.852 616.479 634.932 615.865 634.791C615.25 634.65 614.757 634.299 614.478 633.816C614.402 633.685 614.325 633.553 614.248 633.421C614.203 633.342 614.157 633.262 614.111 633.183C613.988 632.972 613.861 632.757 613.735 632.54C613.61 632.324 613.485 632.105 613.359 631.883C613.232 631.661 613.105 631.436 612.98 631.205C612.855 630.975 612.73 630.738 612.608 630.495C612.488 630.258 612.358 629.983 612.248 629.734C612.167 629.552 612.075 629.324 612 629.131C611.921 628.929 611.847 628.729 611.778 628.535C611.708 628.34 611.644 628.15 611.581 627.968C611.574 627.949 611.567 627.93 611.56 627.91C611.505 627.75 611.451 627.595 611.398 627.45C611.338 627.288 611.279 627.136 611.219 626.994C611.154 626.837 611.109 626.745 611.053 626.632C610.236 625.197 609.068 623.509 607.902 621.952C607.755 621.756 607.609 621.561 607.463 621.369C606.686 620.35 605.888 619.355 605.068 618.378C604.472 617.667 603.864 616.966 603.246 616.274C602.337 615.255 601.401 614.251 600.448 613.27C599.857 612.661 599.268 612.069 598.662 611.476C597.081 609.929 595.445 608.428 593.767 606.973C592.09 605.519 590.362 604.103 588.6 602.723C586.844 601.347 584.988 599.955 583.176 598.614C581.847 597.626 580.504 596.552 579.243 595.565C578.565 595.034 577.893 594.518 577.224 594.015C577.221 594.013 577.219 594.011 577.217 594.009C576.631 593.569 576.044 593.141 575.453 592.727C574.184 591.838 572.9 591.019 571.576 590.268C570.252 589.516 568.901 588.837 567.504 588.226C566.115 587.618 564.68 587.075 563.228 586.607C561.766 586.136 560.322 585.745 558.777 585.399C556.743 584.946 554.716 584.613 552.61 584.351C550.533 584.096 548.409 583.925 546.298 583.835C545.558 583.803 544.814 583.779 544.067 583.766C544.064 583.765 544.061 583.765 544.058 583.765C542.691 583.742 541.314 583.751 539.93 583.79C539.786 583.794 539.643 583.798 539.5 583.803C537.499 583.869 535.54 583.996 533.543 584.183C531.418 584.381 529.29 584.647 527.163 584.966C525.037 585.284 522.859 585.668 520.671 586.066C518.717 586.423 516.759 586.827 514.849 587.289C514.346 587.411 513.844 587.537 513.343 587.668C510.959 588.293 508.685 589.016 506.49 589.892C504.303 590.764 502.171 591.796 500.104 592.97C498.041 594.142 496.029 595.46 494.087 596.893C492.134 598.333 490.29 599.858 488.493 601.496C486.712 603.122 485.006 604.838 483.372 606.644C482.463 607.648 481.508 608.719 480.622 609.738C479.728 610.768 478.854 611.801 478.013 612.832C477.672 613.25 477.334 613.669 477.004 614.088C476.523 614.698 476.053 615.31 475.603 615.918C474.842 616.944 474.131 617.969 473.479 618.989C472.829 620.008 472.24 621.025 471.722 622.039C471.188 623.088 470.797 623.979 470.388 625.077C469.283 627.669 468.549 629.204 467.759 630.927C467.605 631.266 467.451 631.615 467.293 631.979C466.368 634.052 465.487 636.12 464.663 638.18C463.833 640.255 463.062 642.313 462.33 644.412C461.607 646.49 460.925 648.603 460.302 650.714C459.678 652.831 459.108 654.95 458.585 657.107C458.065 659.248 457.584 661.472 457.177 663.606C456.94 664.845 456.696 666.17 456.487 667.399C456.335 668.288 456.194 669.171 456.068 670.042C456.017 670.395 455.968 670.746 455.922 671.094C455.769 672.253 455.647 673.391 455.569 674.5C455.566 674.542 455.563 674.584 455.56 674.626C455.481 675.775 455.449 676.884 455.47 677.962C455.491 679.038 455.567 680.108 455.697 681.159C455.835 682.252 455.99 683.141 456.252 684.29C456.424 685.034 456.604 685.757 456.793 686.473C457.075 687.54 457.38 688.606 457.71 689.661C458.04 690.715 458.389 691.739 458.765 692.769C458.886 693.099 459.016 693.446 459.143 693.774C459.533 694.787 459.943 695.772 460.381 696.752C460.817 697.727 461.274 698.675 461.757 699.605C462.244 700.543 462.748 701.447 463.288 702.35C464.206 703.884 464.967 705.38 465.63 706.68C466.301 708.002 466.919 709.23 467.548 710.413C467.666 710.634 467.785 710.856 467.904 711.076C468.42 712.027 468.941 712.949 469.481 713.843C470.148 714.948 470.837 716.006 471.564 717.042C472.286 718.071 473.049 719.083 473.838 720.046C474.636 721.02 475.431 721.923 476.323 722.859C477.206 723.786 478.16 724.676 479.223 725.617C480.278 726.55 481.401 727.498 482.536 728.443C483.671 729.387 484.82 730.329 485.959 731.258C487.101 732.187 488.243 733.109 489.372 734.009C490.507 734.913 491.637 735.802 492.77 736.673C493.899 737.543 495.075 738.426 496.185 739.24C497.982 740.559 499.819 741.808 501.706 742.981C503.584 744.149 505.514 745.245 507.484 746.255C509.452 747.264 511.462 748.19 513.512 749.03C515.559 749.869 517.644 750.62 519.763 751.28C520.233 751.426 520.7 751.566 521.171 751.703C522.828 752.183 524.507 752.608 526.192 752.972C526.203 752.975 526.215 752.978 526.226 752.98C528.403 753.448 530.557 753.811 532.751 754.073C533.556 754.168 534.334 754.247 535.129 754.311C535.925 754.375 536.697 754.422 537.486 754.454C538.16 754.481 538.833 754.496 539.5 754.498C539.615 754.498 539.73 754.498 539.844 754.497C540.631 754.494 541.394 754.473 542.16 754.43C542.863 754.39 543.554 754.331 544.319 754.256C544.389 754.249 544.458 754.242 544.528 754.235C545.361 754.151 546.303 754.054 547.177 753.98C549.509 753.788 551.756 753.478 554.028 753.038C556.298 752.598 558.536 752.035 560.764 751.355C561.633 751.09 562.496 750.807 563.361 750.507C564.705 750.041 566.032 749.539 567.358 748.999C569.535 748.112 571.682 747.136 573.809 746.08C575.928 745.028 578.028 743.895 580.087 742.699C582.145 741.504 584.188 740.227 586.171 738.896C588.38 737.414 590.523 735.838 592.604 734.147C594.682 732.459 596.692 730.664 598.611 728.777C600.536 726.884 602.376 724.894 604.123 722.812C605.871 720.729 607.527 718.553 609.08 716.294C610.01 714.941 610.904 713.558 611.76 712.148C612.037 711.314 612.287 710.507 612.516 709.736C614.181 704.01 614.961 699.828 615.906 694.383C615.97 693.857 615.981 693.419 615.99 692.887C615.991 692.785 615.994 692.678 615.996 692.568C616.006 691.875 616.027 691.073 616.138 689.999C616.357 687.838 616.943 684.636 618.472 680.403C618.857 679.333 620.285 678.686 621.69 679C622.674 679.223 623.38 679.882 623.573 680.654C623.838 679.268 624.076 677.889 624.282 676.494C624.365 675.938 624.697 675.417 625.218 675.042C625.739 674.668 626.405 674.47 627.081 674.504C627.756 674.537 628.391 674.801 628.849 675.247C629.307 675.692 629.548 676.28 629.523 676.872C629.454 678.441 629.346 680.003 629.209 681.566C629.071 683.124 628.905 684.673 628.705 686.225C628.506 687.772 628.275 689.316 628.01 690.861C627.747 692.395 627.448 693.93 627.114 695.46C626.779 696.996 626.416 698.502 626.011 700.021C625.768 700.931 625.51 701.842 625.241 702.743C625.141 703.078 625.044 703.404 624.943 703.73C624.861 703.996 624.777 704.263 624.689 704.537C623.771 707.42 622.703 710.295 621.51 713.09C620.313 715.894 618.98 718.644 617.515 721.326C616.051 724.008 614.457 726.621 612.736 729.154C611.016 731.686 609.172 734.136 607.208 736.497C605.252 738.851 603.169 741.12 600.986 743.282C599.297 744.955 597.561 746.554 595.763 748.092C595.121 748.78 594.47 749.447 593.814 750.093C591.906 751.977 589.967 753.879 587.958 755.683C591.845 752.974 594.668 750.407 597.218 747.87C597.559 747.529 597.895 747.188 598.228 746.846C601.614 743.34 604.693 739.849 608.791 735.132C620.296 721.483 623.853 711.37 626.377 705.473C628.749 699.43 629.752 696.792 631.294 694.407C633.492 691.058 635.237 683.785 635.404 680.061C635.489 678.717 636.703 677.672 638.154 677.716C639.605 677.764 640.742 678.947 640.652 680.373C640.473 684.504 638.562 692.813 635.827 696.991C634.613 698.849 633.731 701.093 631.275 707.375C628.65 713.5 624.956 724.095 612.79 738.547C608.616 743.352 605.485 746.898 601.946 750.559C601.598 750.916 601.245 751.275 600.886 751.633C600.884 751.635 600.881 751.637 600.879 751.639C597.558 754.928 593.722 758.394 587.831 762.047C574.449 771.034 552.904 776.01 547.742 776.535C546.735 776.72 545.757 776.901 544.716 777.076C543.211 777.328 541.574 777.573 539.5 777.761C536.128 778.047 531.656 778.273 524.838 777.527C522.433 777.256 519.642 776.803 516.615 776.119C511.94 775.76 507.367 775.012 503.505 773.972C500.163 773.074 496.998 772.365 493.896 771.606C493.003 771.387 492.1 771.16 491.2 770.921C489.033 770.344 486.865 769.689 484.818 768.898C483.188 768.269 481.461 767.604 479.65 766.848C473.099 764.097 465.118 760.055 457.489 751.743C449.457 742.928 444.228 734.034 440.556 726.115C443.151 731.999 445.482 736.431 447.543 740.076C447.933 740.763 448.313 741.417 448.685 742.045C451.324 746.473 453.492 749.585 456.197 752.57C469.461 766.559 476.47 769.673 483.885 772.829C485.884 773.61 488.139 774.339 490.582 775.029C495.463 776.409 501.066 777.603 506.934 778.831C512.403 779.983 518.636 780.599 525.139 780.569C525.142 780.569 525.144 780.569 525.147 780.57C526.415 780.564 527.701 780.536 528.992 780.483C532.465 780.34 535.986 780.026 539.5 779.566C543.918 778.988 548.258 778.181 552.493 777.232C553.306 777.05 554.266 776.81 555.37 776.511C561.762 774.783 572.559 771.171 585.184 765.418C587.961 764.154 590.896 762.882 594.179 761.227C595.177 760.722 596.208 760.182 597.273 759.591C601.849 757.033 607.309 753.531 613.499 747.579C618.6 742.673 624.118 735.919 628.752 728.201C631.043 724.403 633.132 720.391 634.955 716.319C640.444 704.016 643.455 691.792 644.485 679.385C644.485 679.383 644.485 679.38 644.485 679.378C644.604 677.924 645.845 676.794 647.295 676.872C648.743 676.95 649.852 678.269 649.727 679.802C648.648 692.808 645.494 705.593 639.756 718.461C637.872 722.669 635.702 726.849 633.31 730.822C628.433 738.968 622.562 746.158 617.155 751.357C610.544 757.714 604.704 761.46 599.828 764.185C598.649 764.839 597.529 765.426 596.457 765.966C593.044 767.681 590.145 768.932 587.371 770.196C574.497 776.058 563.554 779.739 556.812 781.569C555.613 781.894 554.568 782.155 553.665 782.358C549.061 783.39 544.333 784.261 539.5 784.869C536.093 785.298 532.679 785.595 529.275 785.737C527.95 785.794 526.599 785.823 525.275 785.831C525.272 785.831 525.269 785.832 525.267 785.832C518.446 785.874 511.79 785.227 505.945 784C500.009 782.754 494.722 781.643 489.785 780.291C487.135 779.562 484.601 778.762 482.15 777.81C473.906 774.337 466.234 770.803 452.327 756.125ZM623.147 682.777C622.225 685.566 621.744 687.796 621.494 689.504C621.891 688.09 622.258 686.672 622.596 685.239C622.789 684.424 622.973 683.594 623.147 682.777ZM517.417 770.912C517.953 770.951 518.493 770.986 519.035 771.016C517.58 770.738 516.141 770.426 514.704 770.078C512.935 769.65 511.195 769.174 509.453 768.642C512.185 769.568 514.887 770.329 517.417 770.912ZM461.362 748.186C468.224 755.654 475.207 759.231 481.407 761.87C483.203 762.629 484.957 763.311 486.676 763.976C487.389 764.252 488.11 764.506 488.843 764.746C485.094 762.461 481.817 760.101 479.228 758.064C471.532 751.927 468.045 747.47 465.066 743.624C464.214 742.499 463.419 741.403 462.619 740.278C461.758 739.511 460.885 738.695 460.032 737.835C458.836 736.634 457.594 735.285 456.462 733.953C455.323 732.616 454.218 731.216 453.184 729.797C452.141 728.364 451.163 726.912 450.235 725.427C449.361 724.029 448.539 722.615 447.771 721.221C447.727 721.141 447.683 721.062 447.639 720.982C446.828 719.504 446.083 718.056 445.388 716.716C444.679 715.35 444.084 714.221 443.491 713.234C442.752 712.003 442.03 710.707 441.359 709.414C440.686 708.117 440.05 706.793 439.458 705.465C438.865 704.134 438.312 702.794 437.792 701.431C437.624 700.99 437.454 700.532 437.295 700.093C437.222 699.891 437.149 699.689 437.077 699.487C437.704 702.242 438.456 705.093 439.349 708.005C440.635 712.2 442.165 716.665 444.222 721.437C447.748 729.556 452.799 738.762 461.362 748.186ZM435.156 656.804C434.971 658.036 434.742 659.816 434.533 662.146C434.484 662.695 434.437 663.282 434.393 663.886C434.395 663.872 434.397 663.857 434.399 663.843C434.678 662.352 434.957 660.977 435.267 659.51C435.821 656.892 436.43 654.364 437.11 651.836C437.794 649.297 438.541 646.794 439.355 644.312C440.17 641.83 441.055 639.359 441.995 636.94C442.944 634.496 443.945 632.117 445.01 629.738C445.349 628.981 445.695 628.224 446.048 627.468C445.115 629.087 444.218 630.795 443.318 632.643C442.601 634.114 441.887 635.663 441.163 637.317C440.885 637.952 440.545 638.708 440.158 639.605C438.637 643.156 436.362 648.87 435.156 656.804ZM455.738 608.882C456.081 608.371 456.428 607.868 456.779 607.377C457.778 605.98 458.813 604.657 459.86 603.39C460.596 602.5 461.342 601.636 462.091 600.795C462.406 600.44 462.724 600.087 463.04 599.739C463.571 599.158 464.102 598.584 464.635 598.02C460.706 601.791 457.152 605.796 453.858 610.278C453.815 610.337 453.773 610.397 453.729 610.457C454.408 609.911 455.079 609.385 455.738 608.882Z" fill="#3DAE79" fill-opacity="0.99"/>
<path d="M688.101 666.385C688.507 673.935 691.636 683.408 689.487 690.944C689.458 691.048 689.428 691.153 689.398 691.257C688.528 694.286 687.261 697.352 685.602 700.901C685.39 701.355 685.168 701.819 684.942 702.291C682.93 706.477 680.382 711.499 676.827 717.967C664.982 739.303 659.455 755.997 657.461 761.862C653.549 773.058 645.833 783.377 633.242 794.556C632.085 795.574 630.872 796.591 629.624 797.618C628.608 798.454 626.382 797.373 624.664 795.217C622.946 793.059 622.321 790.703 623.253 789.936C624.386 789.005 625.48 788.073 626.53 787.152C626.535 787.148 626.54 787.144 626.544 787.139C638.303 776.708 645.314 767.291 648.759 757.042C650.603 751.396 655.634 735.488 667.321 715.178C670.78 709.095 673.271 704.35 675.242 700.406C675.457 699.973 675.668 699.551 675.868 699.14C675.874 699.131 675.879 699.121 675.884 699.111C677.511 695.764 678.7 693.013 679.515 690.292C679.53 690.234 679.545 690.176 679.56 690.118C681.689 682.974 678.516 674.265 678.174 667.403C678.116 666.083 680.268 664.737 683.005 664.406C685.738 664.075 688.03 664.965 688.101 666.385ZM358.955 659.542C356.047 650.381 358.385 638.309 362.619 628.591C366.826 618.727 372.909 610.933 376.205 607.604C379.425 604.334 381.797 600.309 384.573 595.503C385.211 594.401 385.869 593.26 386.564 592.09C388.859 588.225 391.563 584.007 395.151 579.841C408.389 564.662 417.404 555.915 423.769 549.386C425.087 548.061 426.323 546.83 427.491 545.698C427.493 545.696 427.495 545.695 427.497 545.693C431.916 541.424 435.441 538.427 439.49 536.837C446.673 534.063 452.754 532.302 460.581 531.927C471.315 531.359 482.973 525.838 490.631 520.078C491.046 519.758 491.472 519.425 491.908 519.096C492.566 518.599 493.25 518.092 493.965 517.577C499.282 513.771 506.139 509.402 516.903 506.067C527.062 502.957 536.427 502.949 544.475 503.848C546.792 504.107 548.984 504.445 551.084 504.8C556.395 505.7 561.062 506.75 565.54 507.319C593.483 511.19 607.784 521.191 615.249 528.125C621.033 533.684 623.092 538.304 624.518 541.564C624.947 542.555 625.31 543.438 625.692 544.201C629.07 551.007 632.723 555.931 636.707 562.098C637.583 563.465 638.471 564.899 639.356 566.421C642.293 571.499 645.295 574.302 648.024 576.278C649.214 577.141 650.338 577.852 651.393 578.523C651.414 578.535 651.435 578.546 651.455 578.558C651.603 578.652 651.745 578.748 651.89 578.842C651.999 578.912 652.116 578.976 652.225 579.047C652.295 579.053 652.347 579.065 652.391 579.072C652.424 579.077 652.45 579.082 652.466 579.086C652.471 579.085 652.476 579.084 652.48 579.083C652.779 579.141 652.968 579.249 653.007 579.271C653.075 579.308 653.126 579.35 653.154 579.37C653.301 579.474 653.465 579.631 653.571 579.737C653.843 580.011 654.302 580.499 654.987 581.277C655.664 581.888 656.398 582.418 657.309 583.081C657.367 583.122 657.425 583.163 657.483 583.205C658.372 583.855 659.404 584.631 660.61 585.69C661.712 586.659 660.877 588.879 658.745 590.609C656.614 592.341 654.049 592.99 653.01 592.098C651.931 591.168 651.007 590.495 650.161 589.891C650.106 589.853 650.051 589.816 649.997 589.778C649.114 589.151 648.277 588.565 647.482 587.849C647.216 587.61 646.953 587.355 646.714 587.112C646.232 586.716 645.628 586.314 644.892 585.852C644.744 585.759 644.596 585.659 644.44 585.562C643.436 584.941 642.262 584.234 641.037 583.361C638.158 581.319 635.066 578.42 632.128 573.171C631.351 571.791 630.561 570.476 629.767 569.201C626.081 563.316 622.462 558.288 619.151 551.329C618.694 550.374 618.299 549.377 617.858 548.318C616.539 545.189 614.914 541.375 609.913 536.458C603.265 530.15 590.165 520.775 564.038 517.188C559.621 516.632 554.949 515.561 549.874 514.687C547.944 514.354 545.955 514.06 543.911 513.824C536.473 512.967 527.952 512.97 518.746 515.859C508.24 519.201 501.816 523.602 496.755 527.412C496.421 527.666 496.093 527.918 495.771 528.167C495.592 528.309 495.414 528.452 495.237 528.594C495.015 528.768 494.796 528.941 494.58 529.112C486.928 535.033 475.47 540.563 464.198 540.948C457.074 541.167 451.564 542.669 444.788 545.194C441.45 546.465 438.615 548.867 434.534 552.79C433.391 553.893 432.143 555.118 430.776 556.494C424.688 562.748 416.09 571.078 403.355 585.491C400.05 589.281 397.595 593.082 395.428 596.702C394.754 597.827 394.103 598.939 393.467 600.031C390.814 604.586 388.335 608.823 384.737 612.393C381.777 615.311 376.075 622.416 372.137 631.501C368.126 640.593 366.226 651.182 368.744 658.855C369.003 659.651 369.262 660.45 369.529 661.246C371.819 668.091 374.605 674.816 379.578 679.847C394.975 690.973 401.256 703.714 406.035 717.855C410.742 732.022 414.153 747.344 420.013 758.458C420.162 758.747 420.313 759.034 420.464 759.321C434.013 784.779 451.751 797.598 457.297 801.684C457.566 801.878 457.811 802.052 458.031 802.21C458.228 802.35 458.409 802.472 458.565 802.584C460.919 804.259 463.237 805.411 465.669 806.544C465.802 806.605 465.935 806.667 466.068 806.728C468.649 807.92 471.344 809.115 474.35 810.833C485.554 817.203 495.577 820.473 504.247 822.54C505.855 822.921 507.421 823.268 508.953 823.571C508.957 823.573 508.962 823.574 508.966 823.575C515.691 824.902 521.676 825.594 527.319 826.264C537.628 827.445 544.66 826.64 549.968 825.718C551.643 825.42 553.173 825.093 554.604 824.761C557.708 824.039 560.378 823.312 563.148 822.751C568.372 821.688 573.015 819.977 577.477 818.082C577.876 817.913 578.276 817.747 578.673 817.574C578.791 817.523 578.909 817.471 579.026 817.42C583.743 815.353 588.199 813.145 593.003 811.142C594.143 810.667 595.975 812.313 597.106 814.829C598.234 817.342 598.156 819.818 596.916 820.337C591.764 822.486 586.968 824.83 581.761 827.059C581.761 827.059 581.761 827.059 581.761 827.059C581.331 827.242 580.9 827.43 580.466 827.611C575.672 829.609 570.583 831.432 564.862 832.584C561.987 833.159 559.279 833.877 556.005 834.618C554.446 834.97 552.764 835.325 550.863 835.652C545.068 836.623 537.419 837.471 526.245 836.198C520.262 835.491 513.928 834.739 506.734 833.305C505.084 832.974 503.39 832.607 501.648 832.191C492.348 829.953 481.585 826.422 469.55 819.596C466.515 817.866 463.8 816.642 461.069 815.362C460.917 815.289 460.765 815.216 460.613 815.143C458.052 813.932 455.45 812.631 452.798 810.744C452.444 810.492 451.995 810.165 451.453 809.774C445.531 805.409 426.56 791.713 411.971 764.561C411.928 764.477 411.885 764.392 411.841 764.308C402.359 746.107 399.646 735.015 394.479 727.495C393.215 725.594 392.173 723.77 391.302 722.034C389.434 718.305 388.376 715.118 387.582 712.264C387.362 711.469 387.158 710.717 386.976 709.998C386.19 706.895 385.641 704.427 384.566 702.025C381.35 694.751 377.451 689.595 370.774 682.763C365.118 676.927 362.017 669.115 359.75 662.057C359.746 662.046 359.743 662.036 359.74 662.025C359.469 661.186 359.21 660.356 358.955 659.542ZM677.571 599.845C678.23 601.2 676.772 603.346 674.335 604.628C671.894 605.909 669.434 605.913 668.823 604.648C667.366 601.623 665.793 598.611 664.143 595.679C663.451 594.447 664.728 592.23 667.024 590.71C669.323 589.19 671.819 589.013 672.569 590.332C674.332 593.441 676.013 596.637 677.571 599.845ZM308.853 664.087C308.399 661.969 310.285 660 313.012 659.726C315.738 659.455 318.27 660.924 318.712 662.941C318.946 664.013 319.384 665.777 320.021 668.131C323.19 680.192 332.021 707.252 346.457 734.756C352.317 746.121 358.966 757.639 365.958 768.906C367.971 772.15 369.91 775.025 371.79 777.674C380.148 788.991 391.365 794.593 408.34 813.25C453.624 862.619 526.317 890.518 594.607 872.342C634.279 862.319 670.168 837.027 691.889 802.674C708.881 776.017 720.856 746.777 726.198 715.934C732.304 690.606 731.42 641.387 727.634 630.026C727.245 628.249 729.056 626.205 731.712 625.465C734.366 624.726 736.879 625.647 737.293 627.519C741.246 639.3 742.442 690.752 736.1 717.298C730.551 749.655 718.019 780.352 700.142 808.305C677.204 844.434 640.518 872.623 598.356 885.555C526.526 908.878 443.04 883.807 392.284 828.419C373.305 807.518 372.001 794.691 363.414 783.089C361.445 780.301 359.405 777.279 357.278 773.837C349.858 761.833 342.852 749.566 336.733 737.515C322.288 709.534 313.496 682.235 310.245 669.709C309.572 667.182 309.106 665.267 308.853 664.087ZM337.944 570.316C347.627 548.812 368.683 521.798 391.534 503.708C402.548 494.745 413.654 487.61 422.717 482.342C436.848 474.201 447.294 472.204 457.351 470.66C457.459 470.643 457.566 470.627 457.674 470.611C464.506 469.632 471.288 468.91 479.759 467.502C483.779 466.839 488.107 466.055 493.081 465.102C508.614 462.046 530.35 457.979 552.929 458.171C552.946 458.172 552.964 458.174 552.981 458.175C575.186 458.111 599.607 457.619 615.454 464.185C670.594 487.623 690.107 522.152 697.301 537.904C709.511 565.945 735.068 591.631 731.989 624.373C730.322 628.2 721.62 625.075 721.916 619.034C721.91 618.818 721.903 618.601 721.895 618.385C721.81 616.326 721.673 614.506 721.182 612.066C720.242 608.615 719.271 606.137 718.355 603.884C716.952 597.52 696.951 558.214 689.03 543.26C682.243 528.526 656.722 505.677 607.44 484.768C593.792 479.065 574.404 468.17 552.66 468.16C552.601 468.159 552.543 468.159 552.484 468.158C531.128 468.011 510.246 471.92 495.206 474.865C490.486 475.764 486.346 476.503 482.491 477.13C473.889 478.54 467.055 479.221 460.302 480.15C460.206 480.162 460.111 480.175 460.015 480.187C450.487 481.591 440.936 483.379 427.949 490.84C419.105 495.967 408.393 502.866 397.809 511.48C376.096 528.691 356.193 554.139 346.992 574.538C346.141 576.357 343.435 576.936 340.913 575.818C338.395 574.699 337.051 572.231 337.944 570.316ZM282.731 541.666C308.029 466.73 381.926 407.598 459.759 397.002C465.579 396.109 471.335 395.463 477.146 395.027C498.24 390.655 528.608 388.08 558.364 391.354C558.699 391.392 559.034 391.432 559.369 391.471C588.844 394.53 616.993 403.067 636.218 410.958C704.979 439.833 734.234 478.237 744.789 497.746C754.243 516.803 756.9 521.485 761.645 528.447C761.767 528.64 761.89 528.832 762.012 529.025C762.027 529.034 762.042 529.042 762.057 529.05C762.323 529.219 762.517 529.381 762.611 529.467C762.805 529.644 762.938 529.803 762.988 529.863C763.103 530.001 763.186 530.126 763.217 530.17C763.342 530.349 763.476 530.559 763.559 530.697C764.34 531.983 766.577 536.07 768.114 539.459C769.695 542.93 770.551 545.538 771.395 548.293C771.479 548.573 771.563 548.853 771.647 549.133C772.392 551.621 773.189 554.344 774.409 558.166C775.15 560.495 773.619 563.137 771.038 564.069C768.456 564.999 765.832 563.943 765.126 561.71C763.887 557.813 763.081 555.026 762.362 552.608C762.283 552.339 762.204 552.071 762.124 551.802C761.352 549.259 760.604 547.024 759.263 544.057C757.111 539.883 755.25 536.95 753.504 534.273C748.776 527.312 745.8 522.102 736.261 502.781C726.552 484.951 699.375 448.466 632.671 420.286C614.097 412.645 586.924 404.386 558.535 401.416C558.203 401.38 557.871 401.346 557.538 401.311C528.84 398.132 499.607 400.579 479.303 404.77C473.821 405.866 468.447 407.142 463.057 408.624C389.832 428.727 331.708 481.997 291.814 545.82C285.347 559.351 280.323 572.082 276.391 584.089C264.991 619.42 262.157 648.709 267.987 675.26C269.336 681.052 270.351 696.291 274.916 717.508C276.263 723.731 277.921 730.453 280.033 737.658C281.41 742.351 282.967 747.2 284.757 752.26C289.657 766.09 296.234 781.14 305.107 796.512C307.635 800.888 310.056 804.749 312.428 808.351C322.899 823.537 330.792 835.737 354.137 861.761C381.822 895.078 445.403 933.706 484.605 942.476C503.753 947.815 515.01 949.576 522.938 951.01C525.147 951.388 527.098 951.712 528.894 951.987C533.595 952.699 537.257 953.162 542.087 953.426C568.915 954.656 589.822 951.282 614.656 943.016C622.072 940.487 629.779 937.443 638.032 933.624C640.263 932.591 643.078 933.714 644.307 936.184C645.542 938.652 644.641 941.583 642.312 942.665C633.522 946.736 625.301 949.972 617.389 952.65C591.732 961.129 569.834 964.669 541.811 963.404C536.578 963.124 532.504 962.606 527.542 961.856C525.705 961.576 523.75 961.257 521.575 960.887C513.48 959.433 501.914 957.641 482.133 952.147C441.493 943.094 375.591 903.126 346.935 868.687C322.935 841.97 314.915 829.55 304.102 813.868C301.642 810.133 299.108 806.105 296.467 801.536C287.121 785.35 280.224 769.503 275.119 754.994C273.355 749.976 271.811 745.152 270.444 740.498C268.258 733.042 266.544 726.111 265.153 719.687C260.353 697.268 259.425 682.43 258.204 677.298C251.946 648.916 255.061 617.273 267.077 580.405C271.129 568.121 276.258 555.227 282.731 541.666ZM752.108 850.312C750.706 852.377 747.695 852.747 745.436 851.164C743.176 849.579 742.469 846.708 743.812 844.732C750.912 834.246 755.245 826.287 758.497 820.029C764.415 808.396 766.795 802.607 770.873 794.173C781.272 772.328 788.011 749.78 791.702 729.121C797.936 694.688 795.793 665.963 794.489 651.034C794.284 648.673 796.304 646.499 799.037 646.136C801.768 645.781 804.187 647.453 804.405 649.913C805.759 665.287 807.982 694.864 801.596 730.476C797.793 751.948 790.831 775.446 779.982 798.281C775.881 806.776 773.541 812.448 767.555 824.264C764.19 830.759 759.675 839.131 752.108 850.312Z" fill="#5EC47B"/>
</svg>
