<svg xmlns="http://www.w3.org/2000/svg" xmlns:xlink="http://www.w3.org/1999/xlink" width="2000" zoomAndPan="magnify" viewBox="0 0 1500 1499.999933" height="2000" preserveAspectRatio="xMidYMid meet" version="1.0"><rect x="-150" width="1800" fill="#efe5e2" y="-149.999993" height="1799.99992" fill-opacity="1"/><path fill="#fe835a" d="M 1093.269531 384.375 C 1097.339844 384.378906 1101.410156 384.363281 1105.480469 384.324219 C 1133.140625 384.054688 1159.636719 385.96875 1186.925781 390.542969 C 1191.636719 391.3125 1196.355469 391.96875 1201.097656 392.558594 C 1218.980469 394.933594 1237.347656 401.859375 1251.9375 412.496094 C 1259.5625 418.730469 1265.710938 424.8125 1270 433.75 L 1270 436.25 L 1272.5 436.25 C 1278.074219 448.988281 1280.230469 459.8125 1278.75 473.75 C 1277.527344 477.203125 1277.527344 477.203125 1276.25 480 L 1275.234375 484.0625 C 1271.980469 494.34375 1266.390625 501.679688 1259.0625 509.492188 C 1256.605469 512.117188 1254.316406 514.808594 1252.03125 517.578125 C 1248.730469 521.378906 1245.199219 524.457031 1241.25 527.578125 C 1235.140625 532.441406 1229.578125 537.675781 1224.0625 543.203125 L 1221.738281 545.523438 C 1217.949219 549.359375 1214.300781 553.261719 1210.78125 557.34375 C 1205.667969 563.25 1200.210938 568.777344 1194.6875 574.296875 L 1191.5 577.480469 C 1184.238281 584.671875 1176.828125 591.234375 1168.75 597.5 C 1166.082031 599.699219 1163.425781 601.910156 1160.78125 604.140625 C 1157.308594 607.046875 1153.839844 609.929688 1150.261719 612.710938 C 1147.410156 614.761719 1147.410156 614.761719 1146.25 617.5 L 1150.316406 617.914062 C 1157.382812 618.804688 1164.253906 620.445312 1171.171875 622.109375 L 1175.332031 623.109375 C 1189.472656 626.597656 1203.292969 630.753906 1216.25 637.5 L 1216.25 640 L 1219.84375 641.171875 C 1223.75 642.5 1223.75 642.5 1226.25 643.75 L 1226.25 646.25 L 1228.359375 646.640625 C 1231.847656 647.675781 1234.515625 649.179688 1237.5 651.25 L 1237.5 653.75 L 1242.5 656.25 L 1242.5 658.75 L 1248.75 661.25 L 1248.75 663.75 L 1252.5 665 C 1254.78125 667.996094 1254.78125 667.996094 1257.109375 671.71875 L 1259.46875 675.417969 C 1261.25 678.75 1261.25 678.75 1261.25 682.5 L 1263.75 682.5 C 1269.558594 692.914062 1272.667969 703.410156 1272.890625 715.390625 C 1272.492188 729.882812 1270.714844 744.078125 1265 757.5 C 1263.417969 760.054688 1261.75 762.554688 1260 765 C 1259.179688 766.792969 1258.375 768.589844 1257.578125 770.390625 C 1249.316406 787.222656 1235.464844 801.652344 1222.5 815 L 1220.675781 816.902344 C 1213.25 824.632812 1213.25 824.632812 1210 827.5 L 1207.5 827.5 L 1206.621094 829.6875 C 1204.597656 833.199219 1202.257812 835.003906 1199.0625 837.5 C 1194.296875 841.285156 1189.628906 845.125 1185.046875 849.132812 C 1175.835938 857.175781 1166.261719 864.601562 1156.390625 871.816406 C 1153.695312 873.796875 1151 875.78125 1148.316406 877.777344 C 1135.9375 886.898438 1123.222656 895.3125 1110.132812 903.375 C 1107.824219 904.800781 1105.523438 906.234375 1103.226562 907.675781 C 1087.058594 917.757812 1070.5625 927.28125 1053.75 936.25 L 1049.019531 938.789062 C 1047.339844 939.6875 1045.664062 940.585938 1043.984375 941.484375 L 1041.625 942.746094 C 1036.949219 945.238281 1032.238281 947.636719 1027.5 950 L 1024.386719 951.691406 C 1017.765625 955.226562 1012.503906 957.082031 1005 957.5 L 1005 960 C 1000.894531 961.839844 996.777344 963.664062 992.65625 965.46875 L 989.179688 967.03125 C 981.621094 970.332031 974.40625 972.5 966.25 973.75 L 966.25 976.25 C 960.417969 978.339844 954.585938 980.421875 948.75 982.5 L 946.269531 983.386719 C 921.542969 992.191406 896.84375 1000.148438 871.363281 1006.507812 C 867.832031 1007.414062 864.347656 1008.417969 860.851562 1009.445312 C 851.808594 1011.929688 842.542969 1013.125 833.28125 1014.453125 L 827.917969 1015.242188 C 825.273438 1015.632812 822.625 1016.019531 819.976562 1016.402344 C 814.910156 1017.140625 809.847656 1017.925781 804.792969 1018.761719 C 792.835938 1020.605469 780.785156 1021.6875 768.75 1022.890625 L 760.730469 1023.703125 C 746.128906 1025.179688 731.519531 1026.585938 716.90625 1027.914062 L 712.40625 1028.328125 C 705.222656 1028.988281 698.035156 1029.632812 690.851562 1030.265625 C 678.34375 1031.386719 666.097656 1032.664062 653.847656 1035.464844 C 648.617188 1036.53125 643.433594 1036.871094 638.109375 1037.113281 C 635.039062 1037.308594 635.039062 1037.308594 632.734375 1038.699219 C 629.515625 1040.230469 626.683594 1040.691406 623.160156 1041.199219 C 615.183594 1042.441406 607.335938 1044.058594 599.453125 1045.78125 L 590.203125 1047.789062 L 587.75 1048.324219 C 582.351562 1049.496094 576.945312 1050.648438 571.539062 1051.792969 C 550.082031 1056.324219 528.773438 1061.089844 507.585938 1066.757812 C 499.226562 1068.988281 490.808594 1070.953125 482.351562 1072.785156 C 476.203125 1074.175781 470.789062 1076.191406 465.078125 1078.851562 C 461.640625 1080.382812 458.183594 1081.304688 454.53125 1082.1875 C 445.292969 1084.542969 436.167969 1087.195312 427.03125 1089.921875 L 422.601562 1091.242188 L 413.984375 1093.8125 C 406.980469 1095.898438 399.960938 1097.945312 392.945312 1099.988281 C 390.234375 1100.804688 387.542969 1101.664062 384.867188 1102.585938 C 381.359375 1103.714844 378.007812 1104.414062 374.375 1105 C 368.5 1106.019531 363.164062 1107.570312 357.578125 1109.652344 C 350.75 1112.078125 344.050781 1113.417969 336.878906 1114.460938 C 333.765625 1114.84375 333.765625 1114.84375 331.25 1116.25 C 311.605469 1117.523438 293.558594 1114.636719 275.792969 1106.101562 C 263.824219 1100.046875 254.332031 1092.152344 246.875 1080.929688 C 238.839844 1067.203125 236.363281 1052.230469 236.199219 1036.492188 C 236.726562 1024.695312 239.265625 1013.792969 242.5 1002.5 L 243.308594 999.398438 C 250.097656 975.914062 267.089844 955.925781 283.75 938.75 C 284.664062 937.800781 285.574219 936.855469 286.511719 935.878906 C 289.675781 932.652344 292.472656 930.019531 296.25 927.5 L 296.25 925 L 292.71875 923.710938 C 272.628906 916.164062 255.960938 905.324219 242.007812 888.820312 C 238.5625 884.410156 235.257812 879.871094 232.5 875 L 232.5 872.5 L 230 872.5 C 223.585938 852.128906 220.28125 835.210938 223.984375 813.984375 C 228.472656 794.183594 238.28125 779.039062 251.25 763.75 C 252.320312 762.398438 253.386719 761.042969 254.453125 759.6875 C 258.457031 755.167969 262.878906 751.371094 267.5 747.5 L 270.585938 744.839844 C 284.355469 733.195312 299.363281 724.511719 315.15625 715.9375 L 319.261719 713.699219 C 328.066406 708.984375 336.980469 704.953125 346.25 701.25 C 348.671875 700.238281 351.09375 699.222656 353.515625 698.203125 C 375.0625 689.234375 396.8125 680.984375 418.921875 673.523438 C 432.496094 668.9375 446.011719 664.308594 459.304688 658.957031 C 465.765625 656.375 472.308594 654.328125 478.980469 652.367188 C 483.136719 651.046875 486.996094 649.351562 490.9375 647.503906 C 495.300781 645.558594 499.804688 644.019531 504.304688 642.417969 C 506.859375 641.484375 509.375 640.445312 511.875 639.375 C 515.5 637.820312 519.097656 636.46875 522.8125 635.15625 C 527.40625 633.519531 531.910156 631.671875 536.328125 629.609375 C 540.371094 627.714844 544.417969 625.972656 548.609375 624.433594 C 573.945312 615.132812 597.113281 601.671875 620 587.5 L 623.679688 585.238281 C 638.542969 576.089844 653.300781 566.847656 667.539062 556.746094 C 669.261719 555.523438 670.988281 554.308594 672.722656 553.097656 C 683.785156 545.363281 694.386719 537.382812 704.492188 528.425781 C 711.648438 522.085938 719.097656 516.183594 726.675781 510.351562 C 728.648438 508.820312 730.617188 507.28125 732.578125 505.734375 C 752.082031 490.457031 772.632812 476.683594 793.75 463.75 L 796.855469 461.847656 C 817.574219 449.1875 838.285156 437.296875 860.539062 427.539062 C 865.214844 425.472656 869.828125 423.273438 874.375 420.9375 C 881.511719 417.304688 888.789062 414.148438 896.25 411.25 L 899.097656 410.109375 C 908.941406 406.316406 919.003906 403.980469 929.296875 401.796875 L 931.972656 401.222656 C 945.203125 398.371094 958.425781 395.980469 971.84375 394.195312 C 975.308594 393.707031 978.753906 393.136719 982.203125 392.554688 C 997.230469 390.035156 1012.277344 388.082031 1027.457031 386.757812 L 1030.277344 386.511719 C 1051.265625 384.722656 1072.210938 384.339844 1093.269531 384.375 " fill-opacity="1" fill-rule="nonzero"/><path fill="#05193e" d="M 1093.269531 384.375 C 1097.339844 384.378906 1101.410156 384.363281 1105.480469 384.324219 C 1133.140625 384.054688 1159.636719 385.96875 1186.925781 390.542969 C 1191.636719 391.3125 1196.355469 391.96875 1201.097656 392.558594 C 1218.980469 394.933594 1237.347656 401.859375 1251.9375 412.496094 C 1259.5625 418.730469 1265.710938 424.8125 1270 433.75 L 1270 436.25 L 1272.5 436.25 C 1278.074219 448.988281 1280.230469 459.8125 1278.75 473.75 C 1277.527344 477.203125 1277.527344 477.203125 1276.25 480 L 1275.234375 484.0625 C 1271.980469 494.34375 1266.390625 501.679688 1259.0625 509.492188 C 1256.605469 512.117188 1254.316406 514.808594 1252.03125 517.578125 C 1248.730469 521.378906 1245.199219 524.457031 1241.25 527.578125 C 1235.140625 532.441406 1229.578125 537.675781 1224.0625 543.203125 L 1221.738281 545.523438 C 1217.949219 549.359375 1214.300781 553.261719 1210.78125 557.34375 C 1205.667969 563.25 1200.210938 568.777344 1194.6875 574.296875 L 1191.5 577.480469 C 1184.238281 584.671875 1176.828125 591.234375 1168.75 597.5 C 1166.082031 599.699219 1163.425781 601.910156 1160.78125 604.140625 C 1157.308594 607.046875 1153.839844 609.929688 1150.261719 612.710938 C 1147.410156 614.761719 1147.410156 614.761719 1146.25 617.5 L 1150.316406 617.914062 C 1157.382812 618.804688 1164.253906 620.445312 1171.171875 622.109375 L 1175.332031 623.109375 C 1189.472656 626.597656 1203.292969 630.753906 1216.25 637.5 L 1216.25 640 L 1219.84375 641.171875 C 1223.75 642.5 1223.75 642.5 1226.25 643.75 L 1226.25 646.25 L 1228.359375 646.640625 C 1231.847656 647.675781 1234.515625 649.179688 1237.5 651.25 L 1237.5 653.75 L 1242.5 656.25 L 1242.5 658.75 L 1248.75 661.25 L 1248.75 663.75 L 1252.5 665 C 1254.78125 667.996094 1254.78125 667.996094 1257.109375 671.71875 L 1259.46875 675.417969 C 1261.25 678.75 1261.25 678.75 1261.25 682.5 L 1263.75 682.5 C 1269.558594 692.914062 1272.667969 703.410156 1272.890625 715.390625 C 1272.492188 729.882812 1270.714844 744.078125 1265 757.5 C 1263.417969 760.054688 1261.75 762.554688 1260 765 C 1259.179688 766.792969 1258.375 768.589844 1257.578125 770.390625 C 1249.316406 787.222656 1235.464844 801.652344 1222.5 815 L 1220.675781 816.902344 C 1213.25 824.632812 1213.25 824.632812 1210 827.5 L 1207.5 827.5 L 1206.621094 829.6875 C 1204.597656 833.199219 1202.257812 835.003906 1199.0625 837.5 C 1194.296875 841.285156 1189.628906 845.125 1185.046875 849.132812 C 1175.835938 857.175781 1166.261719 864.601562 1156.390625 871.816406 C 1153.695312 873.796875 1151 875.78125 1148.316406 877.777344 C 1135.9375 886.898438 1123.222656 895.3125 1110.132812 903.375 C 1107.824219 904.800781 1105.523438 906.234375 1103.226562 907.675781 C 1087.058594 917.757812 1070.5625 927.28125 1053.75 936.25 L 1049.019531 938.789062 C 1047.339844 939.6875 1045.664062 940.585938 1043.984375 941.484375 L 1041.625 942.746094 C 1036.949219 945.238281 1032.238281 947.636719 1027.5 950 L 1024.386719 951.691406 C 1017.765625 955.226562 1012.503906 957.082031 1005 957.5 L 1005 960 C 1000.894531 961.839844 996.777344 963.664062 992.65625 965.46875 L 989.179688 967.03125 C 981.621094 970.332031 974.40625 972.5 966.25 973.75 L 966.25 976.25 C 960.417969 978.339844 954.585938 980.421875 948.75 982.5 L 946.269531 983.386719 C 921.542969 992.191406 896.84375 1000.148438 871.363281 1006.507812 C 867.832031 1007.414062 864.347656 1008.417969 860.851562 1009.445312 C 851.808594 1011.929688 842.542969 1013.125 833.28125 1014.453125 L 827.917969 1015.242188 C 825.273438 1015.632812 822.625 1016.019531 819.976562 1016.402344 C 814.910156 1017.140625 809.847656 1017.925781 804.792969 1018.761719 C 792.835938 1020.605469 780.785156 1021.6875 768.75 1022.890625 L 760.730469 1023.703125 C 746.128906 1025.179688 731.519531 1026.585938 716.90625 1027.914062 L 712.40625 1028.328125 C 705.222656 1028.988281 698.035156 1029.632812 690.851562 1030.265625 C 678.34375 1031.386719 666.097656 1032.664062 653.847656 1035.464844 C 648.617188 1036.53125 643.433594 1036.871094 638.109375 1037.113281 C 635.039062 1037.308594 635.039062 1037.308594 632.734375 1038.699219 C 629.515625 1040.230469 626.683594 1040.691406 623.160156 1041.199219 C 615.183594 1042.441406 607.335938 1044.058594 599.453125 1045.78125 L 590.203125 1047.789062 L 587.75 1048.324219 C 582.351562 1049.496094 576.945312 1050.648438 571.539062 1051.792969 C 550.082031 1056.324219 528.773438 1061.089844 507.585938 1066.757812 C 499.226562 1068.988281 490.808594 1070.953125 482.351562 1072.785156 C 476.203125 1074.175781 470.789062 1076.191406 465.078125 1078.851562 C 461.640625 1080.382812 458.183594 1081.304688 454.53125 1082.1875 C 445.292969 1084.542969 436.167969 1087.195312 427.03125 1089.921875 L 422.601562 1091.242188 L 413.984375 1093.8125 C 406.980469 1095.898438 399.960938 1097.945312 392.945312 1099.988281 C 390.234375 1100.804688 387.542969 1101.664062 384.867188 1102.585938 C 381.359375 1103.714844 378.007812 1104.414062 374.375 1105 C 368.5 1106.019531 363.164062 1107.570312 357.578125 1109.652344 C 350.75 1112.078125 344.050781 1113.417969 336.878906 1114.460938 C 333.765625 1114.84375 333.765625 1114.84375 331.25 1116.25 C 311.605469 1117.523438 293.558594 1114.636719 275.792969 1106.101562 C 263.824219 1100.046875 254.332031 1092.152344 246.875 1080.929688 C 238.839844 1067.203125 236.363281 1052.230469 236.199219 1036.492188 C 236.726562 1024.695312 239.265625 1013.792969 242.5 1002.5 L 243.308594 999.398438 C 250.097656 975.914062 267.089844 955.925781 283.75 938.75 C 284.664062 937.800781 285.574219 936.855469 286.511719 935.878906 C 289.675781 932.652344 292.472656 930.019531 296.25 927.5 L 296.25 925 L 292.71875 923.710938 C 272.628906 916.164062 255.960938 905.324219 242.007812 888.820312 C 238.5625 884.410156 235.257812 879.871094 232.5 875 L 232.5 872.5 L 230 872.5 C 223.585938 852.128906 220.28125 835.210938 223.984375 813.984375 C 228.472656 794.183594 238.28125 779.039062 251.25 763.75 C 252.320312 762.398438 253.386719 761.042969 254.453125 759.6875 C 258.457031 755.167969 262.878906 751.371094 267.5 747.5 L 270.585938 744.839844 C 284.355469 733.195312 299.363281 724.511719 315.15625 715.9375 L 319.261719 713.699219 C 328.066406 708.984375 336.980469 704.953125 346.25 701.25 C 348.671875 700.238281 351.09375 699.222656 353.515625 698.203125 C 375.0625 689.234375 396.8125 680.984375 418.921875 673.523438 C 432.496094 668.9375 446.011719 664.308594 459.304688 658.957031 C 465.765625 656.375 472.308594 654.328125 478.980469 652.367188 C 483.136719 651.046875 486.996094 649.351562 490.9375 647.503906 C 495.300781 645.558594 499.804688 644.019531 504.304688 642.417969 C 506.859375 641.484375 509.375 640.445312 511.875 639.375 C 515.5 637.820312 519.097656 636.46875 522.8125 635.15625 C 527.40625 633.519531 531.910156 631.671875 536.328125 629.609375 C 540.371094 627.714844 544.417969 625.972656 548.609375 624.433594 C 573.945312 615.132812 597.113281 601.671875 620 587.5 L 623.679688 585.238281 C 638.542969 576.089844 653.300781 566.847656 667.539062 556.746094 C 669.261719 555.523438 670.988281 554.308594 672.722656 553.097656 C 683.785156 545.363281 694.386719 537.382812 704.492188 528.425781 C 711.648438 522.085938 719.097656 516.183594 726.675781 510.351562 C 728.648438 508.820312 730.617188 507.28125 732.578125 505.734375 C 752.082031 490.457031 772.632812 476.683594 793.75 463.75 L 796.855469 461.847656 C 817.574219 449.1875 838.285156 437.296875 860.539062 427.539062 C 865.214844 425.472656 869.828125 423.273438 874.375 420.9375 C 881.511719 417.304688 888.789062 414.148438 896.25 411.25 L 899.097656 410.109375 C 908.941406 406.316406 919.003906 403.980469 929.296875 401.796875 L 931.972656 401.222656 C 945.203125 398.371094 958.425781 395.980469 971.84375 394.195312 C 975.308594 393.707031 978.753906 393.136719 982.203125 392.554688 C 997.230469 390.035156 1012.277344 388.082031 1027.457031 386.757812 L 1030.277344 386.511719 C 1051.265625 384.722656 1072.210938 384.339844 1093.269531 384.375 M 1042.34375 440.78125 L 1038.300781 441.109375 C 992.484375 444.890625 942.46875 449.625 900.3125 469.0625 L 897.039062 470.558594 C 868.039062 483.898438 839.167969 498.664062 812.5 516.25 L 808.761719 518.664062 C 787.179688 532.753906 766.796875 548.5 746.945312 564.90625 C 742.871094 568.214844 738.691406 571.363281 734.476562 574.488281 L 732.5 576.25 L 732.5 578.75 L 730.324219 579.765625 C 727.425781 581.289062 724.957031 583.003906 722.34375 584.972656 L 719.378906 587.183594 L 716.25 589.53125 C 707.242188 596.226562 698.152344 602.625 688.75 608.75 C 686.644531 610.164062 684.542969 611.578125 682.441406 612.996094 C 663.839844 625.496094 645.011719 637.53125 625.46875 648.515625 L 621.40625 650.808594 L 617.609375 652.914062 L 614.25 654.777344 C 611.550781 656.101562 609.183594 656.917969 606.25 657.5 L 606.25 660 L 602.941406 661.019531 C 598.921875 662.441406 595.464844 664.152344 591.71875 666.171875 C 577.164062 673.734375 561.542969 679.136719 546.25 685 L 541.890625 686.679688 C 534.640625 689.484375 527.371094 692.230469 520.078125 694.921875 C 513.589844 697.328125 507.183594 699.929688 500.859375 702.734375 C 494.605469 705.472656 488.507812 707.46875 481.894531 709.109375 C 477.8125 710.265625 474.136719 711.984375 470.308594 713.789062 C 466.332031 715.503906 462.234375 716.597656 458.078125 717.773438 C 455.078125 718.726562 452.367188 719.898438 449.53125 721.25 C 443.996094 723.824219 438.402344 725.140625 432.476562 726.523438 C 427.886719 727.726562 423.65625 729.445312 419.292969 731.289062 C 416.203125 732.519531 413.121094 733.46875 409.921875 734.375 C 405.015625 735.796875 400.515625 737.582031 395.890625 739.726562 C 391.496094 741.699219 387.039062 743.5 382.578125 745.3125 C 330.894531 766.371094 330.894531 766.371094 289.296875 802.65625 C 284.566406 809.617188 279.421875 818.136719 278.410156 826.597656 C 278.085938 835.042969 279.765625 841.445312 283.023438 849.214844 C 285.269531 852.949219 287.777344 854.914062 291.25 857.5 L 292.5 860 C 321.554688 876.03125 353.925781 878.941406 386.503906 878.820312 C 443.195312 877.6875 500.488281 864.769531 555.542969 852.152344 C 589.222656 844.445312 622.980469 836.800781 656.953125 830.46875 L 661.484375 829.625 C 665.566406 828.882812 669.65625 828.175781 673.75 827.5 L 677.988281 826.796875 C 688.863281 825.113281 699.632812 824.402344 710.625 824.0625 L 715.613281 823.851562 L 720.429688 823.691406 L 724.734375 823.542969 C 728.980469 823.761719 732.296875 824.726562 736.25 826.25 C 736.171875 830.15625 736.171875 830.15625 735 835 C 729.707031 841.753906 721.402344 845.34375 713.75 848.75 C 708 850.933594 702.175781 852.859375 696.328125 854.765625 L 691.9375 856.230469 C 662.019531 866.097656 631.589844 874.425781 601.304688 883.066406 C 596.148438 884.539062 590.996094 886.011719 585.839844 887.484375 C 548.515625 898.164062 511.183594 908.816406 473.59375 918.515625 C 469.34375 919.613281 465.097656 920.71875 460.851562 921.820312 L 457.792969 922.617188 C 449.722656 924.730469 441.671875 926.925781 433.644531 929.191406 C 428.703125 930.589844 423.738281 931.898438 418.75 933.125 C 383.050781 941.9375 349.042969 952.792969 321.558594 978.390625 C 312.230469 987.429688 305.3125 997.542969 299.453125 1009.0625 L 298.203125 1011.523438 C 293.988281 1020.203125 292.015625 1028.652344 292.269531 1038.339844 C 292.578125 1042.238281 293.246094 1045.238281 295 1048.75 C 298.363281 1052.316406 301.890625 1054.199219 306.40625 1055.9375 C 316.121094 1058.824219 324.914062 1058.027344 334.6875 1055.703125 C 338.550781 1054.675781 342.40625 1053.605469 346.25 1052.5 C 347.484375 1052.148438 348.71875 1051.800781 349.992188 1051.441406 C 370.375 1045.652344 390.667969 1039.566406 410.96875 1033.5 C 430.996094 1027.519531 451.011719 1021.546875 471.179688 1016.054688 C 475.464844 1014.871094 479.734375 1013.648438 484.007812 1012.421875 C 524.980469 1000.761719 566.765625 992.359375 608.609375 984.492188 C 613.039062 983.640625 617.460938 982.746094 621.878906 981.816406 C 651.972656 975.597656 682.042969 971.601562 712.648438 969.179688 C 721.929688 968.445312 731.210938 967.644531 740.488281 966.847656 L 743.246094 966.609375 C 766.003906 964.648438 788.636719 961.957031 811.25 958.75 L 815.765625 958.136719 C 869.25 950.84375 920.269531 931.53125 970 911.25 L 972.769531 910.121094 C 983.769531 905.613281 994.367188 900.433594 1004.953125 895.039062 C 1008.316406 893.335938 1011.691406 891.667969 1015.066406 889.996094 C 1083.300781 856.136719 1163.226562 808.515625 1206.445312 743.691406 C 1210.640625 736.96875 1214.46875 730.417969 1215.253906 722.402344 C 1215.382812 716.445312 1214.808594 711.484375 1212.472656 705.972656 C 1210.535156 702.449219 1208.03125 700.109375 1205 697.5 L 1201.589844 694.503906 C 1181.660156 677.984375 1152.882812 673.601562 1128.183594 669.328125 C 1125.210938 668.789062 1122.265625 668.160156 1119.3125 667.519531 C 1112.066406 666.070312 1104.835938 665.402344 1097.472656 664.863281 L 1093.1875 664.542969 C 1078.113281 663.503906 1063.074219 663.367188 1047.96875 663.4375 L 1043.636719 663.445312 C 1022.382812 663.5 1001.160156 663.964844 979.921875 664.84375 L 976.265625 664.992188 C 951.832031 666.015625 927.660156 668.199219 903.515625 672.109375 L 900.453125 672.601562 C 862.375 678.746094 825.230469 687.585938 787.917969 697.328125 C 778.722656 699.707031 769.496094 701.957031 760.238281 704.074219 C 753.960938 705.535156 747.753906 707.265625 741.621094 709.257812 C 737.230469 710.390625 733.261719 710.25 728.75 710 C 729.945312 706.324219 731.109375 703.90625 733.726562 701.023438 C 741.441406 694.226562 749.441406 688.277344 758.046875 682.65625 L 762.023438 680.039062 C 773.601562 672.480469 785.367188 665.378906 797.5 658.75 L 800.914062 656.875 C 816.09375 648.589844 831.335938 641.269531 847.515625 635.171875 C 851.914062 633.484375 856.304688 631.769531 860.679688 630.023438 C 892.484375 617.445312 892.484375 617.445312 908.242188 613.3125 C 911.917969 612.320312 915.566406 611.25 919.21875 610.179688 C 956.699219 599.332031 994.625 593.332031 1033.367188 589.074219 C 1037.160156 588.65625 1040.953125 588.230469 1044.742188 587.804688 C 1047.398438 587.511719 1050.054688 587.234375 1052.710938 586.960938 C 1067.878906 585.328125 1083.007812 582.554688 1096.5625 575.234375 L 1099.089844 573.914062 C 1114.121094 565.933594 1127.050781 555.960938 1140 545 L 1142.390625 542.980469 C 1149.449219 536.921875 1156.019531 530.417969 1162.578125 523.828125 C 1164.191406 522.226562 1164.191406 522.226562 1165.832031 520.589844 C 1172.976562 513.421875 1179.800781 505.960938 1186.308594 498.207031 C 1191.695312 491.871094 1197.554688 486.679688 1204.050781 481.503906 C 1207.367188 478.855469 1210.625 476.140625 1213.828125 473.359375 L 1216.527344 471.03125 C 1218.847656 468.652344 1220.175781 466.890625 1221.25 463.75 C 1221.230469 461.128906 1221.230469 461.128906 1220 458.75 C 1215.050781 454.042969 1209.019531 451.035156 1202.5 449.140625 C 1200.007812 448.558594 1197.507812 448.011719 1195 447.5 L 1190.628906 446.578125 C 1162.089844 440.898438 1132.792969 439.101562 1103.75 438.75 L 1100.429688 438.703125 C 1081.035156 438.457031 1061.671875 439.152344 1042.34375 440.78125 " fill-opacity="1" fill-rule="nonzero"/><path fill="#001043" d="M 707.5 611.25 C 707.421875 613.828125 707.421875 613.828125 706.25 617.5 C 699.585938 626.839844 688.253906 632.699219 678.75 638.75 L 676.40625 640.265625 C 674.226562 641.671875 672.039062 643.066406 669.84375 644.453125 L 666.007812 646.878906 C 662.652344 648.667969 659.992188 649.5 656.25 650 L 656.25 652.5 L 652.5 652.5 L 652.5 655 C 649.6875 657.03125 649.6875 657.03125 646.25 658.75 L 641.25 658.75 L 640 662.5 C 636.964844 664.523438 636.964844 664.523438 632.914062 666.714844 L 630.707031 667.917969 C 628.316406 669.21875 625.917969 670.511719 623.515625 671.796875 L 618.523438 674.503906 C 615.175781 676.324219 611.820312 678.136719 608.464844 679.949219 C 604.371094 682.160156 600.296875 684.402344 596.234375 686.667969 C 584.171875 693.382812 571.992188 699.664062 559.496094 705.539062 C 546.789062 711.523438 534.253906 717.839844 521.707031 724.15625 C 511.027344 729.53125 500.335938 734.8125 489.453125 739.765625 C 471.683594 747.988281 454.5 758.054688 440.710938 772.074219 C 434.914062 777.355469 428.714844 780.464844 421.015625 782.1875 C 409.5 784.488281 397.9375 784.066406 386.25 783.75 C 385.460938 781.441406 385.460938 781.441406 385 778.75 C 387.632812 775.664062 387.632812 775.664062 391.25 772.5 L 394.359375 769.726562 C 407.578125 759.050781 422.464844 751.539062 437.5 743.75 L 442.828125 740.933594 C 455.074219 734.542969 467.796875 729.371094 480.566406 724.125 C 486.859375 721.535156 493.042969 718.761719 499.195312 715.855469 C 505.757812 712.785156 512.421875 709.933594 519.0625 707.03125 C 528.707031 702.804688 538.320312 698.53125 547.824219 693.992188 C 553.375 691.351562 558.945312 688.753906 564.542969 686.210938 C 580.320312 679.003906 595.855469 671.621094 610.875 662.90625 C 614.058594 661.078125 617.25 659.269531 620.453125 657.480469 C 636.710938 648.359375 652.828125 639.011719 668.917969 629.597656 C 674.585938 626.28125 680.257812 622.980469 685.9375 619.6875 L 688.890625 617.96875 L 691.621094 616.386719 L 693.980469 615.019531 C 698.824219 612.3125 701.835938 610.933594 707.5 611.25 " fill-opacity="1" fill-rule="nonzero"/><path fill="#05193f" d="M 483.75 735 L 481.25 735 L 480.390625 737.34375 L 478.75 740 C 475.820312 741.464844 473.238281 742.386719 470 742.890625 C 466.164062 744.207031 464.050781 747.128906 461.25 750 C 459.183594 751.28125 457.101562 752.53125 455 753.75 C 452.382812 755.71875 449.785156 757.714844 447.210938 759.742188 L 445 761.25 L 442.5 761.25 L 445 767.5 L 441.25 770 L 438.75 767.5 L 435.625 769.6875 C 427.328125 775.121094 420.761719 778.046875 410.707031 778.648438 C 407.136719 778.761719 403.574219 778.847656 400 778.75 C 399.519531 774.722656 399.519531 774.722656 400 770 C 402.628906 767.574219 404.601562 766.140625 407.65625 764.453125 L 410.03125 763.042969 C 411.679688 762.070312 413.332031 761.113281 414.996094 760.167969 C 417.421875 758.792969 419.816406 757.375 422.207031 755.941406 C 429.578125 751.566406 436.804688 747.632812 445 745 L 448.984375 743.59375 C 452.5 742.5 452.5 742.5 456.015625 741.875 L 458.75 741.25 L 460 738.75 C 463.3125 738.007812 466.613281 737.824219 470 737.5 L 470 735 C 479.53125 733.59375 479.53125 733.59375 483.75 735 " fill-opacity="1" fill-rule="nonzero"/><path fill="#fe9436" d="M 693.75 611.25 L 696.25 615 L 692.621094 617.019531 C 683.699219 622.007812 674.816406 627.058594 666.015625 632.265625 C 653.671875 639.566406 641.21875 646.664062 628.75 653.75 L 625.078125 655.839844 C 595.015625 672.949219 595.015625 672.949219 581.25 680 L 577.363281 681.992188 C 567.878906 686.605469 567.878906 686.605469 562.265625 686.640625 L 558.75 686.25 L 558.75 683.75 L 556.25 681.25 L 559.128906 680.105469 C 562.726562 678.671875 566.320312 677.234375 569.914062 675.789062 C 572.207031 674.867188 574.5 673.957031 576.796875 673.046875 C 585.238281 669.640625 593.238281 665.949219 601.121094 661.382812 C 603.75 660 603.75 660 606.25 660 L 606.25 657.5 L 608.476562 656.695312 C 617.25 653.371094 625.152344 649.085938 633.203125 644.296875 L 637.152344 641.972656 C 649.691406 634.535156 662.042969 626.792969 674.007812 618.457031 C 677.0625 616.527344 679.097656 615.515625 682.578125 614.84375 C 686.425781 614.03125 690.148438 612.832031 693.75 611.25 " fill-opacity="1" fill-rule="nonzero"/><path fill="#03092f" d="M 861.25 1007.5 L 860 1010 C 856.671875 1010.730469 853.425781 1011.304688 850.058594 1011.796875 L 846.984375 1012.273438 C 843.722656 1012.773438 840.453125 1013.261719 837.1875 1013.75 C 835.042969 1014.078125 832.898438 1014.40625 830.753906 1014.738281 C 826.558594 1015.378906 822.359375 1016.015625 818.164062 1016.640625 C 814.878906 1017.132812 811.601562 1017.648438 808.328125 1018.1875 C 794.945312 1020.382812 781.457031 1021.621094 767.96875 1022.96875 L 759.875 1023.785156 C 741.511719 1025.628906 723.140625 1027.414062 704.765625 1029.140625 L 701.292969 1029.46875 C 698.058594 1029.773438 694.824219 1030.078125 691.585938 1030.375 L 688.730469 1030.648438 C 683.71875 1031.101562 678.78125 1031.339844 673.75 1031.25 L 672.5 1028.75 C 681.34375 1027.121094 690.207031 1025.855469 699.140625 1024.84375 L 701.988281 1024.511719 C 706.3125 1024.039062 710.457031 1023.75 714.820312 1023.757812 C 718.789062 1023.953125 718.789062 1023.953125 722.5 1022.5 C 725.523438 1022.179688 728.535156 1021.914062 731.566406 1021.691406 L 737.179688 1021.246094 L 740.15625 1021.015625 C 765.5625 1019.042969 790.976562 1016.855469 816.082031 1012.390625 C 820.558594 1011.621094 824.78125 1011.171875 829.324219 1011.222656 L 833.75 1011.25 L 835 1010 C 838.660156 1009.136719 842.386719 1008.585938 846.09375 1007.96875 L 849.234375 1007.414062 L 852.257812 1006.902344 L 855.027344 1006.433594 C 857.5 1006.25 857.5 1006.25 861.25 1007.5 " fill-opacity="1" fill-rule="nonzero"/><path fill="#05193f" d="M 403.765625 796.082031 L 407.257812 796.078125 L 410.859375 796.09375 L 414.503906 796.078125 L 417.984375 796.082031 L 421.15625 796.089844 C 423.75 796.25 423.75 796.25 426.25 797.5 C 425.910156 799.839844 425.910156 799.839844 425 802.5 C 417.609375 808.070312 406.558594 809.640625 397.65625 810.945312 C 392.890625 811.492188 388.148438 811.664062 383.359375 811.71875 L 380.574219 811.769531 C 377.984375 811.746094 377.984375 811.746094 373.75 811.25 L 371.25 807.5 C 376.972656 801.976562 383.789062 799.785156 391.25 797.5 C 395.492188 796.519531 399.414062 796.089844 403.765625 796.082031 " fill-opacity="1" fill-rule="nonzero"/><path fill="#03092f" d="M 1250 513.75 L 1253.75 513.75 C 1251.804688 518.617188 1248.730469 521.324219 1244.84375 524.765625 L 1242.972656 526.433594 C 1239.480469 529.527344 1235.960938 532.589844 1232.421875 535.625 C 1224.753906 542.289062 1217.601562 549.46875 1210.960938 557.160156 C 1205.78125 563.117188 1200.269531 568.71875 1194.6875 574.296875 L 1191.511719 577.476562 C 1185.164062 583.761719 1178.769531 589.675781 1171.722656 595.167969 C 1166.78125 599.042969 1162.152344 603.28125 1157.5 607.5 L 1153.75 606.25 C 1156.015625 603.125 1156.015625 603.125 1158.75 600 L 1162.5 600 L 1163.75 596.25 C 1166.171875 594.140625 1166.171875 594.140625 1168.75 592.5 L 1171.25 592.5 L 1172.5 588.75 C 1174.457031 586.777344 1174.457031 586.777344 1176.953125 584.6875 L 1179.679688 582.371094 L 1182.5 580 C 1189.480469 573.992188 1196.320312 568.0625 1202.109375 560.859375 L 1205 557.5 L 1207.5 557.5 L 1208.4375 555.390625 C 1211.667969 549.417969 1216.285156 544.582031 1221.25 540 L 1225 538.75 C 1225.859375 537.097656 1226.691406 535.429688 1227.5 533.75 C 1229.570312 531.621094 1229.570312 531.621094 1231.875 529.6875 L 1234.179688 527.714844 L 1236.25 526.25 L 1238.75 526.25 L 1238.75 523.75 C 1240.894531 521.636719 1240.894531 521.636719 1243.671875 519.296875 L 1246.441406 516.949219 L 1248.75 515 Z M 1151.25 870 L 1153.75 871.25 L 1152.5 875 C 1150.539062 876.734375 1150.539062 876.734375 1147.964844 878.535156 C 1146.996094 879.214844 1146.027344 879.898438 1145.027344 880.597656 L 1141.796875 882.8125 L 1138.421875 885.144531 C 1112.191406 903.105469 1084.742188 919.453125 1056.792969 934.589844 C 1054.359375 935.921875 1051.9375 937.28125 1049.53125 938.667969 L 1046.25 940.546875 L 1042.890625 942.496094 L 1040 943.75 L 1036.25 942.5 C 1039.902344 939.621094 1043.632812 937.34375 1047.734375 935.15625 L 1051.425781 933.167969 L 1055 931.25 C 1060.101562 928.464844 1065.164062 925.648438 1070.152344 922.667969 L 1074.21875 920.234375 L 1077.996094 917.945312 C 1081.25 916.25 1081.25 916.25 1085 916.25 L 1085 913.75 L 1087.109375 912.601562 C 1092.953125 909.394531 1098.640625 906.054688 1104.214844 902.398438 C 1106.25 901.25 1106.25 901.25 1108.75 901.25 L 1108.75 898.75 C 1110.957031 897.300781 1113.238281 895.96875 1115.546875 894.6875 C 1127.726562 887.761719 1141.273438 879.976562 1151.25 870 " fill-opacity="1" fill-rule="nonzero"/><path fill="#001146" d="M 510 727.5 L 510 730 L 506.230469 731.703125 C 488.148438 739.984375 469.699219 748.753906 453.714844 760.703125 C 450.914062 762.746094 447.992188 764.5 445 766.25 L 442.5 761.25 C 455.777344 751.359375 455.777344 751.359375 461.328125 748.359375 C 465.261719 746.460938 465.261719 746.460938 467.5 742.5 C 469.84375 741.71875 469.84375 741.71875 472.5 741.25 C 481.65625 739.074219 489.964844 735.851562 498.300781 731.480469 C 506.234375 727.5 506.234375 727.5 510 727.5 " fill-opacity="1" fill-rule="nonzero"/><path fill="#03092f" d="M 1252.5 771.25 L 1255 772.5 C 1253.019531 778.554688 1249.585938 783.113281 1245.78125 788.125 L 1243.769531 790.789062 C 1233.609375 804.03125 1221.90625 815.828125 1210 827.5 L 1206.25 826.25 C 1207.441406 824.785156 1208.636719 823.328125 1209.84375 821.875 L 1211.863281 819.414062 L 1213.75 817.5 L 1216.25 817.5 L 1217.25 815.253906 C 1218.804688 812.398438 1220.378906 810.65625 1222.734375 808.4375 C 1232.296875 799.15625 1242.738281 788.273438 1248.75 776.25 L 1251.25 776.25 Z M 280 1105 L 284.609375 1106.71875 C 306.5625 1113.898438 330.003906 1111.976562 352.5 1108.75 L 353.75 1111.25 L 349.460938 1112.027344 L 343.90625 1113.046875 L 341.078125 1113.558594 C 336.019531 1114.433594 336.019531 1114.433594 331.25 1116.25 C 315.460938 1117.273438 299.015625 1116.203125 284.375 1109.765625 L 280 1107.5 Z M 587.5 1046.25 L 586.25 1048.75 C 582.816406 1049.71875 582.816406 1049.71875 578.203125 1050.644531 L 575.6875 1051.160156 C 572.960938 1051.722656 570.230469 1052.265625 567.5 1052.8125 C 563.730469 1053.582031 559.960938 1054.355469 556.195312 1055.136719 L 553.328125 1055.730469 C 543.222656 1057.835938 533.203125 1060.292969 523.210938 1062.886719 L 519.625 1063.789062 L 516.53125 1064.59375 C 513.542969 1065.03125 511.601562 1064.6875 508.75 1063.75 C 511.25 1061.25 511.25 1061.25 515.785156 1059.945312 C 517.839844 1059.460938 519.894531 1058.984375 521.953125 1058.515625 L 525.351562 1057.730469 C 529.398438 1056.800781 533.449219 1055.898438 537.5 1055 L 540.007812 1054.441406 C 545.484375 1053.222656 550.964844 1052.019531 556.453125 1050.832031 C 558.285156 1050.4375 560.121094 1050.035156 561.953125 1049.632812 C 564.566406 1049.0625 567.179688 1048.5 569.796875 1047.945312 L 574.386719 1046.953125 C 578.835938 1046.234375 583.003906 1046.125 587.5 1046.25 M 230 867.5 L 232.5 868.75 L 232.5 871.25 L 235 871.25 L 236.007812 874.039062 C 239.890625 883.039062 247.324219 890.09375 254.371094 896.714844 L 256.25 898.75 L 256.25 901.25 C 256.949219 901.367188 257.652344 901.488281 258.375 901.613281 C 261.9375 902.710938 264.28125 904.488281 267.265625 906.71875 C 272.222656 910.292969 276.78125 912.886719 282.5 915 L 282.5 917.5 L 285.15625 917.890625 C 289.238281 918.867188 292.558594 920.527344 296.25 922.5 L 292.5 923.75 C 289.367188 922.707031 286.292969 921.507812 283.28125 920.15625 L 280.578125 918.949219 C 263.890625 911.21875 249.273438 899.683594 238.367188 884.824219 C 236.265625 881.597656 234.246094 878.429688 232.5 875 L 232.5 872.5 L 230 872.5 Z M 1203.75 827.5 L 1207.5 827.5 C 1206.203125 830.726562 1204.949219 832.546875 1202.363281 834.921875 L 1199.0625 837.5 C 1194.238281 841.335938 1189.503906 845.222656 1184.851562 849.261719 C 1178.265625 854.984375 1171.609375 860.605469 1164.765625 866.015625 L 1162.71875 867.679688 C 1160.804688 869.164062 1160.804688 869.164062 1157.5 871.25 L 1153.75 870 C 1157.613281 865.738281 1161.703125 862.457031 1166.40625 859.140625 C 1172.714844 854.640625 1178.351562 849.695312 1184.019531 844.417969 C 1188.683594 840.171875 1193.5625 836.21875 1198.480469 832.265625 C 1201.285156 830.046875 1201.285156 830.046875 1203.75 827.5 M 927.5 986.25 L 931.25 987.5 C 923.265625 991.257812 915.214844 994.246094 906.796875 996.875 L 903.171875 998.015625 C 890.214844 1002.042969 877.234375 1005.742188 863.75 1007.5 L 862.5 1005 C 887.359375 997.832031 887.359375 997.832031 898.515625 994.921875 C 903.375 993.652344 908.183594 992.304688 912.964844 990.761719 L 915.730469 989.867188 C 917.496094 989.292969 919.257812 988.707031 921.015625 988.105469 C 923.152344 987.40625 925.324219 986.820312 927.5 986.25 " fill-opacity="1" fill-rule="nonzero"/><path fill="#02092f" d="M 510 727.5 L 510 730 L 506.140625 731.746094 C 494.945312 736.890625 484.113281 742.390625 473.503906 748.671875 L 470.792969 750.238281 L 468.402344 751.652344 L 466.25 752.5 L 462.5 751.25 C 472.699219 743.367188 484.085938 737.851562 495.78125 732.578125 L 499.148438 731.054688 C 507.171875 727.5 507.171875 727.5 510 727.5 M 622.5 667.5 L 625 668.75 L 625 671.25 L 622.539062 672.527344 C 618.800781 674.46875 615.0625 676.414062 611.328125 678.359375 L 607.457031 680.367188 L 603.636719 682.359375 L 599.859375 684.320312 C 595.59375 686.601562 591.433594 689.027344 587.296875 691.53125 L 585 692.5 L 581.25 691.25 C 585.675781 687.582031 590.636719 685.214844 595.78125 682.734375 C 602.886719 679.261719 609.703125 675.59375 616.351562 671.289062 C 618.75 670 618.75 670 622.5 670 Z M 622.5 667.5 " fill-opacity="1" fill-rule="nonzero"/><path fill="#03092f" d="M 1273.75 481.25 L 1276.25 482.5 C 1271.390625 494.917969 1264.894531 504.761719 1255 513.75 L 1252.5 511.25 L 1254.28125 509.28125 C 1258.378906 504.691406 1261.851562 500.300781 1265 495 L 1267.5 495 L 1268.230469 492.308594 L 1269.21875 488.828125 L 1270.183594 485.355469 L 1271.25 482.5 Z M 248.75 1081.25 C 251.09375 1082.109375 251.09375 1082.109375 253.75 1083.75 L 256.25 1090 C 257.890625 1090.886719 259.554688 1091.71875 261.25 1092.5 C 263.117188 1093.699219 264.964844 1094.921875 266.796875 1096.171875 C 269.9375 1098.300781 273.03125 1100.300781 276.328125 1102.1875 L 278.75 1103.75 L 278.75 1106.25 C 270.933594 1104.398438 264.882812 1100.003906 258.75 1095 C 255.15625 1091.453125 251.726562 1087.832031 248.75 1083.75 Z M 621.25 1038.75 L 620 1041.25 C 617.890625 1041.992188 617.890625 1041.992188 615.175781 1042.585938 L 612.199219 1043.246094 L 609.0625 1043.90625 L 605.988281 1044.59375 C 601.003906 1045.671875 596.378906 1046.5625 591.25 1046.25 L 590 1043.75 C 594.035156 1042.90625 598.070312 1042.078125 602.109375 1041.25 L 605.5625 1040.527344 L 608.921875 1039.84375 L 611.996094 1039.207031 C 615.125 1038.730469 618.089844 1038.671875 621.25 1038.75 M 670 1031.25 C 659.773438 1035.265625 649.597656 1036.367188 638.75 1037.5 L 640 1033.75 C 644.058594 1033.082031 648.125 1032.4375 652.1875 1031.796875 L 655.675781 1031.222656 L 659.042969 1030.699219 L 662.136719 1030.203125 C 665.074219 1029.996094 667.203125 1030.371094 670 1031.25 " fill-opacity="1" fill-rule="nonzero"/><path fill="#040e34" d="M 271.25 743.75 L 273.75 745 L 251.25 767.5 L 248.75 766.25 C 253.855469 760.105469 259.140625 754.578125 265.253906 749.429688 C 267.359375 747.621094 269.316406 745.738281 271.25 743.75 " fill-opacity="1" fill-rule="nonzero"/><path fill="#02092f" d="M 458.75 752.5 L 462.5 752.5 L 462.5 755 C 460.171875 756.796875 460.171875 756.796875 457.109375 758.75 L 454.078125 760.703125 L 451.25 762.5 L 447.5 765 L 447.5 761.25 C 449.828125 758.96875 449.828125 758.96875 452.890625 756.640625 L 455.921875 754.28125 Z M 458.75 752.5 " fill-opacity="1" fill-rule="nonzero"/><path fill="#001146" d="M 731.25 702.5 L 733.75 705 L 732.5 706.25 L 738.75 708.75 L 738.75 711.25 L 728.75 711.25 L 727.5 707.5 C 729.296875 704.765625 729.296875 704.765625 731.25 702.5 M 590 663.75 L 592.5 665 L 592.5 667.5 C 587.835938 670.042969 585.414062 671.25 580 671.25 L 580 667.5 C 581.609375 666.839844 583.226562 666.1875 584.84375 665.546875 L 587.570312 664.449219 Z M 590 663.75 " fill-opacity="1" fill-rule="nonzero"/><path fill="#03092f" d="M 448.75 1082.5 C 442.035156 1085.785156 436.195312 1087.011719 428.75 1087.5 L 430 1085 C 432.953125 1083.890625 432.953125 1083.890625 436.640625 1082.890625 L 440.296875 1081.859375 C 443.691406 1081.261719 445.546875 1081.367188 448.75 1082.5 M 1268.75 731.25 L 1271.25 731.25 C 1270.695312 737.839844 1269.894531 743.773438 1267.5 750 L 1265 748.75 L 1265.503906 746.507812 C 1266.636719 741.433594 1267.761719 736.359375 1268.75 731.25 M 426.25 1087.5 L 426.25 1090 L 408.75 1095 L 407.5 1092.5 C 409.921875 1091.660156 412.34375 1090.828125 414.765625 1090 L 418.851562 1088.59375 C 422.5 1087.5 422.5 1087.5 426.25 1087.5 M 506.699219 1064.261719 L 508.75 1065 C 505.085938 1067.445312 502.898438 1068.191406 498.671875 1069.0625 L 495.347656 1069.785156 L 492.5 1070 L 490 1067.5 C 492.183594 1066.832031 494.371094 1066.1875 496.5625 1065.546875 C 497.78125 1065.183594 499 1064.824219 500.253906 1064.449219 C 503.75 1063.75 503.75 1063.75 506.699219 1064.261719 M 1262.5 751.25 L 1266.25 751.25 L 1262.5 762.5 L 1258.75 762.5 C 1259.625 758.566406 1260.949219 754.96875 1262.5 751.25 M 640 660 L 640 662.5 L 627.5 668.75 L 627.5 665 C 635.78125 660 635.78125 660 640 660 M 468.75 1073.75 L 472.5 1075 C 469.105469 1077.265625 466.367188 1078.773438 462.5 1080 C 459.609375 1079.53125 459.609375 1079.53125 457.5 1078.75 C 460 1076.25 460 1076.25 464.296875 1074.765625 Z M 468.75 1073.75 " fill-opacity="1" fill-rule="nonzero"/><path fill="#030a30" d="M 990 963.75 L 990 966.25 C 988.210938 967.125 986.414062 967.980469 984.609375 968.828125 L 981.578125 970.277344 L 978.75 971.25 L 975 970 C 979.359375 966.308594 984.167969 963.75 990 963.75 " fill-opacity="1" fill-rule="nonzero"/><path fill="#02092f" d="M 681.25 632.5 L 683.75 635 L 672.5 642.5 L 670 640 Z M 681.25 632.5 " fill-opacity="1" fill-rule="nonzero"/><path fill="#001145" d="M 945 980 L 948.75 981.25 C 946.25 983.75 946.25 983.75 943.542969 984.542969 L 940.46875 985.15625 L 937.371094 985.792969 L 935 986.25 L 933.75 983.75 C 935.542969 983.085938 937.339844 982.4375 939.140625 981.796875 L 942.171875 980.699219 Z M 945 980 " fill-opacity="1" fill-rule="nonzero"/><path fill="#03092f" d="M 578.75 693.75 L 578.75 696.25 C 577.171875 697.125 575.578125 697.980469 573.984375 698.828125 L 571.304688 700.277344 L 568.75 701.25 L 565 700 C 572.953125 693.75 572.953125 693.75 578.75 693.75 " fill-opacity="1" fill-rule="nonzero"/><path fill="#000f41" d="M 572.5 673.75 C 571.09375 675.546875 571.09375 675.546875 568.75 677.5 C 564.765625 678.359375 564.765625 678.359375 561.25 678.75 L 561.25 675 C 565.246094 673.667969 568.320312 673.65625 572.5 673.75 " fill-opacity="1" fill-rule="nonzero"/><path fill="#001244" d="M 542.5 682.5 C 546.484375 682.1875 546.484375 682.1875 550 682.5 C 548.59375 684.296875 548.59375 684.296875 546.25 686.25 C 542.265625 687.109375 542.265625 687.109375 538.75 687.5 C 540.15625 685 540.15625 685 542.5 682.5 " fill-opacity="1" fill-rule="nonzero"/><path fill="#020931" d="M 432.5 772.5 L 437.5 772.5 L 437.5 775 L 427.5 780 L 427.5 776.25 L 431.25 775 Z M 432.5 772.5 " fill-opacity="1" fill-rule="nonzero"/><path fill="#001146" d="M 648.75 630 L 651.25 631.25 L 648.75 636.25 L 642.5 635 C 644.542969 632.863281 646.085938 631.332031 648.75 630 " fill-opacity="1" fill-rule="nonzero"/></svg>