<svg viewBox="200 285 680 680" fill="none" xmlns="http://www.w3.org/2000/svg">
<g>
<path d="M228.679 720.108C224.625 708.268 221.604 696.887 218.756 682.351C218.755 682.344 218.753 682.336 218.751 682.328C218.348 680.25 217.954 678.104 217.566 675.885C214.596 658.023 211.152 634.513 212.405 598.983C213.991 559.643 223.417 529.393 230.419 511.887C231.755 508.601 232.945 505.194 236.308 496.606C238.008 492.319 240.196 486.94 243.436 479.866C244.442 477.675 245.545 475.334 246.767 472.837C249.507 467.239 252.883 460.741 257.156 453.39C270.977 428.827 298.071 392.991 330.303 367.619C349.601 352.003 369.963 339.931 386.025 332.129C409.515 320.692 433.633 312.605 460.462 307.353C485.042 302.622 512.014 300.25 542.995 302.198C566.768 303.735 589.536 308.794 611.601 316.321C614.401 317.278 617.206 318.279 620.004 319.322C636.683 325.546 653.116 333.174 669.916 342.356C672.522 343.781 675.13 345.241 677.741 346.738C712.368 366.854 737.918 386.431 763.069 411.343C772.85 421.161 782.446 431.921 791.91 444.359C806.966 463.915 825.581 494.605 838.086 528.102C839.162 530.944 840.206 533.811 841.206 536.679C841.211 536.693 841.216 536.708 841.221 536.722C852.107 567.58 857.536 599.484 859.284 622.98C861.777 660.397 859.579 674.612 858.867 686.384C858.476 690.808 858.039 694.912 857.343 699.78C854.923 717.305 848.459 743.466 837.818 768.436C837.778 768.532 837.738 768.627 837.698 768.723C835.947 772.877 833.098 775.596 831.474 774.83C829.846 774.061 830.026 770.18 831.741 766.128C837.228 753.202 841.655 740.129 844.845 728.291C843.542 727.266 843.296 723.794 844.244 719.983C846.363 710.527 853.421 680.444 849.937 633.663C849.791 636.874 849.585 639.554 849.364 641.901C849.103 644.655 848.843 646.759 848.61 648.564C848.116 652.33 847.762 654.816 847.355 659.238C846.686 669.491 845.277 685.578 842.04 702.237C841.233 706.447 839.078 709.529 837.355 709.132C835.63 708.733 834.977 705.092 835.77 700.985C835.785 700.905 835.8 700.824 835.815 700.744C838.973 684.599 840.433 668.349 841.1 657.854C841.279 655.186 841.418 652.886 841.524 651.158C841.61 649.775 841.708 648.047 841.815 647.086C841.829 646.959 841.858 646.716 841.901 646.425C841.902 646.421 841.903 646.416 841.904 646.411C841.928 646.249 842.048 645.421 842.301 644.534C842.353 644.355 842.467 643.966 842.65 643.513C842.664 643.396 842.677 643.28 842.691 643.163C842.878 641.536 843.056 639.874 843.209 638.072C843.703 631.044 844.69 619.8 842.168 596.521C839.74 575.241 832.196 538.857 811.338 498.18C812.631 500.979 813.889 503.794 815.112 506.624C818.193 513.753 821.05 520.987 823.661 528.316C824.66 531.121 825.607 533.896 826.54 536.742C828.039 541.321 829.44 545.933 830.742 550.575C831.622 553.713 832.457 556.866 833.242 560.025C833.244 560.032 833.246 560.039 833.248 560.046C834.336 564.428 835.337 568.851 836.245 573.317C836.559 574.882 836.859 576.428 837.147 577.966C838.29 584.09 839.259 590.126 839.985 597.123C840.056 597.976 840.117 598.905 840.152 599.599C840.192 600.345 840.224 601.063 840.247 601.742C840.267 602.342 840.28 602.914 840.293 603.462C840.295 603.535 840.297 603.609 840.299 603.682C840.313 604.295 840.327 604.881 840.34 605.444C840.353 606.006 840.364 606.547 840.38 607.079C840.381 607.084 840.381 607.089 840.382 607.093C840.4 607.649 840.412 608.071 840.438 608.659C840.471 609.397 840.502 610.03 840.546 610.796C840.589 611.537 840.636 612.31 840.686 613.089C840.736 613.868 840.789 614.662 840.842 615.467C840.895 616.272 840.948 617.091 841.001 617.916C841.054 618.74 841.107 619.575 841.156 620.415C841.206 621.255 841.254 622.105 841.298 622.958C841.401 624.923 841.171 626.829 840.659 628.241C840.146 629.653 839.401 630.456 838.593 630.489C837.784 630.521 836.973 629.782 836.317 628.445C835.661 627.107 835.212 625.28 835.044 623.359C834.998 622.836 834.95 622.311 834.902 621.783C834.873 621.47 834.845 621.154 834.816 620.839C834.736 619.993 834.651 619.138 834.566 618.279C834.48 617.419 834.394 616.552 834.305 615.676C834.216 614.797 834.124 613.906 834.033 613.002C833.942 612.101 833.85 611.179 833.76 610.242C833.672 609.328 833.577 608.284 833.498 607.35C833.44 606.667 833.377 605.824 833.325 605.121C833.271 604.386 833.22 603.663 833.173 602.965C833.125 602.266 833.081 601.589 833.037 600.942C833.032 600.873 833.027 600.804 833.022 600.735C832.982 600.163 832.942 599.612 832.901 599.09C832.855 598.508 832.806 597.957 832.754 597.434C832.698 596.858 832.656 596.509 832.602 596.082C831.793 590.447 830.456 583.529 828.942 576.988C828.753 576.166 828.562 575.349 828.369 574.541C827.343 570.254 826.223 565.988 825.018 561.761C824.141 558.687 823.217 555.621 822.246 552.563C820.817 548.066 819.289 543.59 817.665 539.145C816.656 536.383 815.633 533.694 814.556 530.967C811.742 523.846 808.683 516.81 805.388 509.851C802.104 502.917 798.565 496.026 794.823 489.252C791.089 482.489 787.007 475.597 782.884 469.024C779.865 464.197 776.717 459.233 773.73 454.713C772.122 452.279 770.517 449.91 768.905 447.59C768.9 447.582 768.894 447.574 768.889 447.566C767.472 445.527 766.06 443.543 764.622 441.583C761.543 437.382 758.383 433.331 755.108 429.398C751.833 425.464 748.437 421.641 744.907 417.917C741.398 414.215 737.699 410.555 733.941 407.063C730.156 403.547 726.327 400.2 722.218 396.82C716.792 392.364 711.26 388.164 705.416 384.032C699.618 379.937 693.643 376.02 687.521 372.29C685.389 370.991 683.234 369.71 681.056 368.451C681.048 368.446 681.039 368.441 681.031 368.436C676.992 366.102 672.927 363.869 668.797 361.709C666.529 360.524 664.241 359.361 661.932 358.22C657.738 356.147 653.519 354.171 649.278 352.287C642.646 349.342 635.945 346.615 629.063 344.059C622.202 341.509 615.089 339.112 607.882 336.894C601.483 334.923 594.885 333.104 588.465 331.554C586.755 331.14 585.043 330.743 583.331 330.36C575.231 328.553 567.253 327.141 559.379 326.139C551.454 325.129 543.54 324.513 535.509 324.274C527.529 324.037 519.416 324.174 511.273 324.689C503.106 325.205 495.056 326.082 486.941 327.33C478.856 328.574 470.827 330.173 462.785 332.149C458.327 333.243 453.583 334.505 449.155 335.789C444.685 337.082 440.254 338.468 435.931 339.926C434.176 340.519 432.439 341.122 430.712 341.741C428.198 342.643 425.721 343.571 423.298 344.52C419.212 346.121 415.261 347.789 411.476 349.509C407.693 351.229 404.072 353.004 400.63 354.823C397.07 356.708 394.185 358.352 390.801 360.421C382.51 365.362 377.484 368.552 371.958 372.2C370.872 372.921 369.769 373.668 368.628 374.453C362.082 378.927 355.717 383.633 349.62 388.512C343.473 393.431 337.595 398.518 331.873 403.873C326.185 409.197 320.691 414.755 315.424 420.523C310.177 426.269 305.157 432.219 300.354 438.385C295.566 444.528 290.894 451.052 286.696 457.413C284.258 461.102 281.725 465.114 279.484 468.843C277.859 471.544 276.291 474.244 274.792 476.927C274.18 478.022 273.589 479.095 273.004 480.174C271.066 483.751 269.25 487.299 267.569 490.792C267.505 490.924 267.442 491.057 267.379 491.189C265.649 494.801 264.073 498.328 262.632 501.809C261.195 505.28 259.863 508.777 258.647 512.266C257.388 515.893 256.425 518.912 255.294 522.843C254.563 525.398 253.886 527.906 253.246 530.411C252.29 534.149 251.407 537.926 250.607 541.709C249.808 545.491 249.097 549.242 248.461 553.031C248.257 554.248 248.05 555.534 247.863 556.755C247.285 560.527 246.792 564.274 246.38 568.024C245.968 571.768 245.644 575.467 245.398 579.177C245.152 582.897 244.989 586.554 244.904 590.28C244.76 596.624 244.672 602.675 244.695 607.981C244.715 613.352 244.835 618.362 245.063 623.242C245.106 624.155 245.153 625.069 245.204 625.982C245.422 629.915 245.713 633.778 246.078 637.577C246.529 642.26 247.09 646.847 247.769 651.43C248.441 655.973 249.237 660.547 250.138 665.024C251.049 669.542 252.026 673.845 253.199 678.447C254.359 682.995 255.676 687.585 257.243 692.568C258.796 697.503 260.548 702.651 262.429 707.808C264.308 712.961 266.33 718.164 268.435 723.271C270.546 728.394 272.772 733.49 275.067 738.463C277.378 743.468 279.775 748.388 282.268 753.234C284.757 758.076 287.433 763.002 290.044 767.573C294.265 774.967 298.756 782.18 303.523 789.207C308.274 796.212 313.304 803.04 318.594 809.658C323.872 816.263 329.413 822.664 335.208 828.846C340.985 835.01 347.032 840.97 353.281 846.657C354.665 847.917 356.063 849.167 357.472 850.405C362.399 854.734 367.524 858.96 372.693 862.96C372.728 862.988 372.764 863.016 372.799 863.043C379.493 868.216 386.241 873.017 393.292 877.616C395.869 879.295 398.361 880.869 400.931 882.438C403.498 884.005 406.073 885.524 408.648 886.992C411.234 888.467 413.835 889.897 416.424 891.269C417.864 892.032 419.293 892.774 420.725 893.502C421.898 894.098 423.07 894.683 424.25 895.261C426.652 896.438 429.047 897.566 431.669 898.759C431.908 898.868 432.148 898.977 432.387 899.085C435.236 900.373 438.581 901.839 441.65 903.146C449.758 906.609 457.883 909.665 466.219 912.386C474.579 915.113 483.049 917.463 491.63 919.437C495 920.213 498.403 920.932 501.8 921.59C507.065 922.61 512.453 923.504 517.81 924.245C526.66 925.47 535.566 926.31 544.572 926.762C553.523 927.212 562.557 927.275 571.56 926.94C580.523 926.609 589.578 925.874 598.471 924.75C608.359 923.503 618.147 921.76 627.874 919.498C637.571 917.243 647.174 914.475 656.567 911.22C665.991 907.955 675.229 904.195 684.249 899.948C693.275 895.698 702.072 890.965 710.607 885.757C715.708 882.645 720.723 879.357 725.617 875.915C728.126 873.983 730.499 872.085 732.755 870.226C749.311 856.388 760.201 845.156 773.267 829.358C774.499 827.821 775.457 826.559 776.618 825.001C776.839 824.704 777.074 824.388 777.312 824.066C778.818 822.025 780.546 819.661 782.917 816.369C787.615 809.822 794.811 799.697 803.334 786.049C805.487 782.595 807.505 780.693 807.924 781.911C808.214 782.765 807.621 784.933 806.473 787.348C808.961 783.07 811.318 778.777 813.57 774.414C814.469 772.672 815.451 771.093 816.314 770.041C817.115 769.066 817.754 768.618 818.127 768.787C818.127 768.787 818.127 768.787 818.127 768.787C818.156 768.8 818.184 768.817 818.209 768.838C818.564 769.124 818.569 770.117 818.213 771.598C817.857 773.078 817.166 774.918 816.285 776.703C813.955 781.429 811.496 786.093 808.918 790.688C806.348 795.266 803.656 799.784 800.844 804.225C798.045 808.647 795.104 813.031 792.054 817.319C789.027 821.575 785.843 825.804 782.567 829.913C779.281 834.035 775.901 838.044 772.395 841.976C770.296 844.329 768.113 846.694 765.941 848.97C765.131 849.819 764.337 850.642 763.538 851.46C762.884 852.128 762.224 852.796 761.542 853.48C754.348 860.693 746.69 867.577 738.76 873.962C730.779 880.389 722.465 886.367 713.851 891.883C705.227 897.404 696.316 902.454 687.151 907.018C677.991 911.58 668.59 915.651 658.982 919.222C649.406 922.782 639.596 925.851 629.688 928.393C622.008 930.364 614.337 932.009 606.576 933.359C603.541 933.965 600.523 934.514 597.531 935.009C588.831 936.45 580.037 937.589 571.353 938.339C586.85 937.425 599.217 935.518 610.822 933.179C612.381 932.862 613.925 932.534 615.462 932.196C631.123 928.684 646.072 924.47 665.506 916.992C720.664 894.766 746.086 869.548 761.646 855.21C776.949 840.169 782.669 832.897 788.527 826.513C796.864 817.539 810.056 797.759 815.425 787.12C817.458 783.286 819.672 780.532 820.525 780.962C821.366 781.407 820.513 784.912 818.457 788.804C812.753 800.175 798.317 821.865 788.103 832.539C783.583 837.263 778.942 843.255 763.693 858.248C748.15 872.519 722.713 897.927 666.758 920.57C647.786 927.892 633.242 932.092 617.564 935.706C616.025 936.053 614.471 936.393 612.9 936.723C612.89 936.724 612.881 936.726 612.871 936.728C598.405 939.708 582.377 942.227 560.606 942.704C509.935 945.488 444.383 924.591 429.991 917.545C427.029 916.349 424.253 915.2 421.289 913.922C418.542 912.737 415.662 911.454 412.448 909.947C402.46 905.155 389.099 898.746 367.979 884.217C361.899 879.991 354.969 874.824 347.679 868.81C336.384 860.224 325.977 851.095 317.451 842.624C310.086 835.313 303.409 828.411 297.134 821.528C295.323 819.54 293.519 817.522 291.742 815.487C287.461 810.587 283.294 805.531 279.447 800.462C276.382 796.426 273.207 792.125 269.976 787.514C258.277 770.701 245.118 749.378 234.502 718.809C223.371 686.391 218.822 657.083 217.356 631.838C218.336 650.41 220.365 664.67 222.43 676.461C222.825 678.686 223.224 680.814 223.626 682.861C226.504 697.298 229.318 707.674 233.01 718.542C251.782 770.115 265.271 786.631 278.74 805.196C282.456 810.012 286.724 815.178 291.495 820.579C301.024 831.373 312.576 843.084 325.587 854.85C337.702 865.821 352.166 877.065 368.4 887.463C368.406 887.467 368.412 887.472 368.418 887.476C371.577 889.5 374.81 891.499 378.111 893.466C388.837 899.856 400.139 905.801 411.826 911.182C422.064 915.899 432.485 920.125 442.904 923.831C445.311 924.688 448.202 925.674 451.525 926.741C470.678 932.88 505.12 942.119 548.267 943.875C557.741 944.259 567.597 944.404 578.833 943.913C582.26 943.76 585.825 943.545 589.529 943.246C605.511 941.899 625.034 939.265 649.974 931.594C670.526 925.265 694.853 914.842 717.931 900.272C729.301 893.132 740.39 885.04 750.695 876.358C781.834 850.06 805.062 819.855 822.311 786.773C822.315 786.766 822.318 786.76 822.322 786.753C824.343 782.867 826.543 780.082 827.337 780.633C828.127 781.183 827.195 784.894 825.148 788.828C807.681 822.309 784.221 852.777 752.812 879.333C742.541 887.996 731.416 896.147 719.96 903.369C696.505 918.243 671.535 928.972 650.523 935.424C624.831 943.313 604.684 945.968 588.275 947.292C584.321 947.597 580.569 947.806 577.047 947.945C565.781 948.379 556.424 948.194 547.325 947.82C505.02 946.041 471.402 937.315 451.891 931.212C448.431 930.126 445.393 929.11 442.812 928.208C431.799 924.36 420.783 919.943 409.924 914.96C398.87 909.891 388.107 904.3 377.805 898.272C374.484 896.329 371.217 894.344 368.014 892.327C368.007 892.324 368 892.32 367.994 892.316C351.48 881.931 336.476 870.471 323.913 859.232C311.167 847.83 300.494 837.231 291.032 826.835C285.944 821.232 281.234 815.698 276.772 810.021C262.088 790.226 247.828 772.507 228.679 720.108ZM802.567 793.866C797.046 802.395 792.378 809.111 788.846 814.132C791.942 809.954 794.926 805.688 797.783 801.36C799.411 798.894 801.016 796.379 802.567 793.866ZM349.454 864.675C350.792 865.703 352.148 866.729 353.517 867.749C349.839 864.807 346.234 861.795 342.68 858.695C338.325 854.897 334.081 850.995 329.926 846.972C336.485 853.426 343.089 859.367 349.454 864.675ZM238.84 717.258C248.686 745.7 260.36 765.18 271.609 781.812C274.874 786.596 278.152 791.151 281.466 795.601C282.836 797.442 284.235 799.261 285.668 801.076C278.033 790.013 271.706 779.365 266.885 770.48C252.639 743.848 247.32 727.363 242.788 713.03C241.516 708.864 240.37 704.831 239.268 700.707C238.14 697.358 237.027 693.854 235.983 690.288C234.518 685.297 233.084 679.855 231.87 674.634C230.648 669.396 229.556 664.035 228.633 658.739C227.702 653.399 226.93 648.08 226.303 642.766C225.714 637.765 225.257 632.765 224.924 627.916C224.905 627.639 224.886 627.361 224.867 627.083C224.527 621.957 224.323 616.963 224.2 612.368C224.073 607.69 224.028 603.796 223.959 600.338C223.874 596.02 223.893 591.572 224.016 587.185C224.139 582.793 224.366 578.413 224.695 574.046C225.024 569.682 225.45 565.36 225.977 561.028C226.148 559.627 226.338 558.162 226.527 556.78C226.614 556.143 226.703 555.505 226.794 554.87C225.281 563.262 224.048 572.025 223.171 581.142C221.91 594.288 221.264 608.422 221.757 623.981C222.66 650.476 226.648 681.422 238.84 717.258ZM274.869 435.658C272.77 438.754 269.791 443.284 266.183 449.321C265.331 450.748 264.442 452.267 263.525 453.865C263.547 453.828 263.57 453.79 263.593 453.753C266.01 449.871 268.304 446.351 270.836 442.614C275.377 435.919 279.996 429.64 284.937 423.412C289.868 417.199 295.039 411.167 300.404 405.366C305.803 399.528 311.405 393.914 317.191 388.533C323.01 383.121 328.973 377.983 335.147 373.04C337.119 371.461 339.115 369.901 341.127 368.366C336.537 371.668 331.885 375.249 327.096 379.195C323.264 382.353 319.365 385.729 315.344 389.401C313.809 390.804 311.939 392.523 309.818 394.542C301.409 402.577 288.437 415.709 274.869 435.658ZM394.639 334.64C396.301 333.832 397.964 333.048 399.614 332.292C404.314 330.14 408.97 328.188 413.574 326.395C416.807 325.136 420.029 323.952 423.224 322.836C424.573 322.365 425.923 321.904 427.261 321.457C429.504 320.708 431.738 319.988 433.966 319.298C418.272 323.885 403.267 329.615 388.268 336.914C388.07 337.011 387.873 337.109 387.673 337.207C390.04 336.3 392.362 335.446 394.639 334.64Z" fill="#3DAE79" fill-opacity="0.99"/>
<ellipse cx="540" cy="628.5" rx="75" ry="82.5" fill="#3DAE79" fill-opacity="0.99"/>
<path d="M478.154 688.078C476.097 685.536 474.376 682.978 472.441 679.652C472.44 679.65 472.439 679.648 472.437 679.646C472.161 679.17 471.88 678.673 471.596 678.162C469.337 674.027 466.512 668.572 463.614 659.881C460.455 650.25 459.924 642.155 459.981 637.322C459.998 636.42 459.956 635.496 459.884 633.14C459.852 631.968 459.82 630.485 459.846 628.5C459.854 627.886 459.869 627.227 459.892 626.519C459.947 624.928 460.046 623.071 460.246 620.909C460.83 613.762 462.884 602.559 466.877 592.921C469.233 587.056 472.143 581.777 474.642 577.963C478.294 572.381 482.462 567.401 487.598 562.633C492.311 558.288 497.854 554.091 504.904 550.344C510.321 547.48 516.064 545.641 521.969 544.563C522.721 544.426 523.48 544.3 524.239 544.187C529.29 543.439 534.48 543.198 540 543.421C540.203 543.429 540.406 543.438 540.61 543.448C550.836 543.998 558.917 545.716 567.365 548.946C570.66 550.234 573.997 551.806 577.435 553.829C582.889 556.986 590.147 562.594 596.081 569.483C596.589 570.066 597.091 570.657 597.583 571.254C597.585 571.257 597.588 571.26 597.59 571.263C602.898 577.664 606.958 584.796 609.461 590.209C613.379 598.859 614.207 602.386 615.142 605.211C615.468 606.287 615.755 607.294 616.052 608.493C617.147 612.827 618.146 619.537 618.249 626.372C618.25 626.398 618.25 626.424 618.251 626.45C618.272 627.586 617.845 628.507 617.327 628.5C616.808 628.493 616.394 627.581 616.373 626.471C616.311 622.935 616.036 619.462 615.621 616.395C615.159 616.294 614.717 615.518 614.569 614.535C614.148 612.129 612.849 604.449 607.78 593.757C608.02 594.531 608.201 595.187 608.349 595.766C608.524 596.446 608.641 596.968 608.739 597.417C608.943 598.353 609.072 598.976 609.371 600.059C610.135 602.528 611.285 606.448 612.113 610.645C612.325 611.709 612.061 612.645 611.55 612.729C611.039 612.815 610.478 612.039 610.27 611C610.266 610.98 610.262 610.96 610.258 610.94C609.454 606.872 608.295 602.915 607.507 600.392C607.307 599.747 607.134 599.192 607.006 598.775C606.903 598.442 606.773 598.027 606.716 597.791C606.708 597.759 606.694 597.699 606.68 597.627C606.68 597.625 606.68 597.624 606.68 597.623C606.672 597.582 606.631 597.376 606.621 597.14C606.619 597.092 606.615 596.988 606.626 596.862C606.619 596.833 606.612 596.804 606.605 596.775C606.511 596.371 606.412 595.96 606.294 595.518C605.815 593.81 605.08 591.056 602.483 585.761C600.073 580.936 595.166 572.948 586.599 565.265C587.152 565.812 587.694 566.363 588.231 566.924C589.583 568.336 590.886 569.791 592.139 571.297C592.618 571.871 593.082 572.445 593.548 573.036C594.3 573.99 595.027 574.955 595.735 575.94C596.214 576.606 596.683 577.28 597.14 577.958C597.141 577.959 597.142 577.96 597.143 577.962C597.776 578.902 598.397 579.867 598.994 580.841C599.202 581.183 599.406 581.523 599.606 581.861C600.405 583.213 601.152 584.552 601.923 586.149C602.012 586.345 602.105 586.561 602.172 586.724C602.244 586.898 602.311 587.065 602.373 587.225C602.427 587.365 602.478 587.5 602.526 587.63C602.533 587.647 602.54 587.664 602.546 587.681C602.6 587.826 602.652 587.964 602.702 588.097C602.752 588.229 602.8 588.357 602.849 588.482C602.849 588.483 602.85 588.484 602.85 588.485C602.901 588.616 602.94 588.715 602.996 588.852C603.067 589.024 603.128 589.172 603.204 589.349C603.278 589.521 603.356 589.7 603.436 589.88C603.515 590.06 603.597 590.245 603.68 590.429C603.762 590.614 603.846 590.802 603.93 590.992C604.015 591.181 604.101 591.373 604.186 591.566C604.272 591.76 604.357 591.956 604.443 592.153C604.64 592.608 604.741 593.084 604.721 593.474C604.701 593.864 604.564 594.134 604.342 594.229C604.119 594.324 603.828 594.236 603.528 593.991C603.229 593.746 602.945 593.362 602.733 592.927C602.675 592.809 602.617 592.69 602.558 592.571C602.523 592.5 602.489 592.428 602.453 592.357C602.359 592.166 602.263 591.974 602.166 591.78C602.069 591.587 601.972 591.392 601.874 591.195C601.774 590.996 601.673 590.794 601.572 590.59C601.471 590.386 601.368 590.177 601.265 589.965C601.164 589.757 601.051 589.52 600.951 589.307C600.878 589.152 600.791 588.959 600.719 588.797C600.643 588.629 600.57 588.463 600.499 588.303C600.429 588.142 600.362 587.986 600.297 587.838C600.29 587.822 600.283 587.806 600.275 587.79C600.218 587.658 600.161 587.531 600.107 587.411C600.047 587.277 599.988 587.151 599.932 587.032C599.869 586.901 599.829 586.822 599.78 586.726C599.098 585.472 598.177 583.968 597.248 582.568C597.132 582.392 597.015 582.218 596.9 582.046C596.284 581.133 595.645 580.23 594.993 579.348C594.519 578.707 594.032 578.069 593.536 577.44C592.807 576.514 592.058 575.605 591.286 574.71C590.807 574.155 590.331 573.617 589.841 573.078C588.554 571.665 587.219 570.301 585.833 568.978C584.454 567.662 583.015 566.38 581.537 565.15C580.064 563.923 578.493 562.7 576.942 561.561C575.803 560.721 574.629 559.863 573.523 559.092C572.929 558.677 572.341 558.277 571.756 557.892C571.754 557.89 571.752 557.889 571.75 557.888C571.236 557.549 570.724 557.222 570.21 556.905C569.108 556.225 568 555.595 566.869 555.008C565.74 554.423 564.591 553.882 563.415 553.385C562.247 552.892 561.038 552.436 559.828 552.033C558.609 551.627 557.399 551.273 556.115 550.95C554.422 550.525 552.734 550.185 550.975 549.908C549.243 549.636 547.466 549.434 545.7 549.308C545.08 549.263 544.457 549.226 543.832 549.199C543.829 549.199 543.827 549.199 543.824 549.199C542.676 549.149 541.523 549.13 540.361 549.14C540.24 549.141 540.12 549.142 540 549.144C538.32 549.168 536.672 549.252 534.993 549.397C533.208 549.552 531.412 549.778 529.627 550.07C527.835 550.362 526.016 550.726 524.187 551.149C522.562 551.526 520.932 551.962 519.357 552.446C518.941 552.574 518.527 552.706 518.112 552.842C516.148 553.49 514.277 554.214 512.472 555.033C510.667 555.85 508.91 556.771 507.192 557.792C505.478 558.811 503.798 559.932 502.166 561.142C500.526 562.358 498.969 563.635 497.441 565.008C495.929 566.367 494.469 567.803 493.062 569.314C492.277 570.156 491.464 571.059 490.708 571.931C489.944 572.812 489.207 573.696 488.495 574.586C488.205 574.947 487.92 575.309 487.64 575.671C487.234 576.197 486.838 576.724 486.455 577.249C485.808 578.136 485.199 579.016 484.632 579.885C484.066 580.753 483.538 581.618 483.06 582.461C482.564 583.336 482.179 584.074 481.748 584.97C480.667 587.122 480.009 588.462 479.304 589.954C479.166 590.249 479.026 590.551 478.884 590.868C478.062 592.667 477.287 594.495 476.583 596.306C475.866 598.145 475.22 599.961 474.614 601.835C474.019 603.676 473.468 605.565 472.98 607.447C472.489 609.34 472.059 611.224 471.679 613.146C471.302 615.051 470.971 617.026 470.71 618.919C470.558 620.019 470.413 621.186 470.295 622.272C470.21 623.056 470.135 623.835 470.072 624.599C470.046 624.908 470.022 625.216 470 625.522C469.926 626.538 469.874 627.532 469.846 628.5C469.845 628.537 469.844 628.573 469.843 628.61C469.816 629.612 469.814 630.578 469.839 631.518C469.864 632.456 469.917 633.388 469.997 634.309C470.081 635.266 470.171 636.046 470.319 637.058C470.416 637.716 470.52 638.357 470.63 638.993C470.795 639.944 470.976 640.887 471.176 641.834C471.376 642.78 471.589 643.699 471.823 644.629C471.898 644.928 471.979 645.243 472.058 645.541C472.303 646.462 472.56 647.359 472.838 648.257C473.114 649.154 473.406 650.033 473.714 650.899C474.022 651.765 474.347 652.624 474.693 653.48C475.281 654.933 475.831 656.335 476.324 657.545C476.82 658.767 477.306 659.917 477.795 661.012C477.887 661.218 477.979 661.422 478.073 661.627C478.476 662.511 478.889 663.374 479.311 664.211C479.83 665.239 480.373 666.248 480.937 667.233C481.495 668.209 482.09 669.188 482.698 670.127C483.311 671.073 483.925 671.968 484.609 672.906C485.285 673.833 486.008 674.754 486.821 675.737C487.625 676.708 488.497 677.711 489.391 678.702C490.283 679.69 491.214 680.683 492.145 681.641C493.082 682.604 494.037 683.551 494.994 684.463C495.96 685.383 496.93 686.272 497.918 687.139C498.904 688.004 499.936 688.869 500.924 689.661C502.519 690.94 504.161 692.148 505.853 693.279C507.536 694.405 509.273 695.457 511.05 696.425C512.824 697.391 514.642 698.274 516.496 699.068C518.349 699.863 520.241 700.569 522.158 701.18C522.582 701.315 523.009 701.446 523.435 701.572C524.935 702.015 526.461 702.403 527.984 702.728C527.995 702.731 528.005 702.733 528.016 702.736C529.986 703.155 531.933 703.47 533.917 703.691C534.644 703.771 535.346 703.835 536.063 703.888C536.783 703.94 537.476 703.978 538.188 704.002C538.794 704.023 539.4 704.034 540 704.035C540.104 704.035 540.207 704.035 540.31 704.034C541.017 704.031 541.704 704.013 542.395 703.981C543.027 703.951 543.653 703.909 544.342 703.851C544.405 703.845 544.467 703.84 544.53 703.835C545.281 703.769 546.131 703.684 546.919 703.601C549.02 703.379 551.046 703.053 553.088 702.611C555.134 702.167 557.148 701.614 559.148 700.951C559.928 700.693 560.708 700.416 561.482 700.125C562.686 699.671 563.881 699.179 565.064 698.65C567.012 697.78 568.925 696.814 570.804 695.757C572.678 694.703 574.519 693.556 576.303 692.338C578.088 691.12 579.838 689.811 581.512 688.448C583.381 686.928 585.17 685.32 586.885 683.621C588.602 681.919 590.238 680.131 591.782 678.274C593.334 676.406 594.796 674.466 596.167 672.458C597.541 670.446 598.821 668.368 600.007 666.231C600.721 664.945 601.392 663.654 602.036 662.328C602.312 661.598 602.562 660.903 602.797 660.225C604.501 655.216 605.407 651.504 606.367 646.586C606.448 646.114 606.497 645.725 606.554 645.252C606.565 645.162 606.576 645.066 606.588 644.968C606.66 644.349 606.743 643.639 606.877 642.662C607.141 640.703 607.606 637.723 608.29 633.836C608.462 632.852 608.985 632.233 609.482 632.473C609.83 632.642 610.069 633.195 610.116 633.859C610.251 632.642 610.362 631.442 610.449 630.229C610.483 629.746 610.605 629.292 610.791 628.967C610.978 628.643 611.216 628.475 611.457 628.503C611.699 628.531 611.926 628.755 612.088 629.128C612.25 629.501 612.333 629.99 612.318 630.486C612.278 631.802 612.21 633.109 612.115 634.421C612.02 635.731 611.9 637.026 611.753 638.333C611.605 639.636 611.433 640.926 611.23 642.229C611.029 643.524 610.801 644.806 610.543 646.099C610.284 647.397 610.004 648.655 609.689 649.939C609.5 650.707 609.299 651.478 609.092 652.232C609.015 652.513 608.938 652.79 608.86 653.065C608.796 653.29 608.73 653.515 608.662 653.747C607.947 656.179 607.116 658.606 606.185 660.973C605.251 663.345 604.211 665.676 603.064 667.957C601.918 670.235 600.669 672.461 599.314 674.627C597.963 676.787 596.511 678.884 594.955 680.915C593.409 682.933 591.757 684.887 590.014 686.754C588.671 688.194 587.279 689.578 585.839 690.904C585.296 691.456 584.748 691.991 584.2 692.51C582.601 694.023 580.954 695.499 579.262 696.885C582.392 694.588 584.699 692.485 586.795 690.395C587.075 690.115 587.351 689.834 587.624 689.552C590.404 686.664 592.938 683.741 596.09 679.618C604.907 667.716 607.447 659.218 609.227 654.218C610.877 649.113 611.432 646.868 612.2 644.802C613.297 641.901 614.265 635.991 614.375 632.986C614.432 631.901 614.876 631.039 615.395 631.055C615.913 631.074 616.308 631.986 616.249 633.097C616.134 636.333 615.077 642.869 613.705 646.383C613.095 647.949 612.633 649.797 610.97 654.932C609.166 659.958 606.611 668.57 597.57 680.775C594.457 684.843 591.97 687.732 589.164 690.669C588.887 690.956 588.607 691.244 588.322 691.531C588.32 691.533 588.318 691.535 588.316 691.536C585.678 694.175 582.65 696.944 578.068 700.008C567.667 707.574 550.566 711.546 546.496 711.726C545.7 711.837 544.927 711.936 544.106 712.027C542.916 712.158 541.629 712.275 540 712.343C537.354 712.436 533.852 712.477 528.55 711.707C526.677 711.429 524.507 711.01 522.166 710.405C518.596 709.736 515.169 708.776 512.274 707.704C509.775 706.78 507.468 705.895 505.25 704.958C504.612 704.689 503.971 704.41 503.334 704.122C501.798 703.429 500.281 702.681 498.843 701.874C497.699 701.233 496.502 700.542 495.258 699.776C490.75 696.984 485.44 693.165 480.134 686.683C474.543 679.802 470.909 673.084 468.327 667.123C470.183 671.519 471.892 674.825 473.394 677.518C473.679 678.029 473.958 678.515 474.229 678.98C476.154 682.256 477.727 684.562 479.596 686.876C488.778 697.754 493.707 700.477 498.837 703.525C500.225 704.293 501.79 705.072 503.504 705.842C506.927 707.383 510.935 708.874 515.283 710.208C519.331 711.454 523.987 712.407 528.94 712.844C528.942 712.844 528.944 712.844 528.946 712.845C529.911 712.93 530.891 712.997 531.882 713.045C534.544 713.171 537.265 713.152 540 712.988C543.438 712.782 546.843 712.346 550.175 711.717C550.814 711.597 551.57 711.44 552.443 711.239C557.458 710.094 566.136 707.482 575.721 702.156C577.826 700.99 579.999 699.74 582.397 698.163C583.127 697.683 583.876 697.172 584.648 696.621C587.969 694.237 591.885 691.082 596.308 686.101C599.954 681.994 603.878 676.51 607.12 670.352C608.725 667.32 610.171 664.144 611.42 660.933C615.177 651.231 617.081 641.775 617.638 632.248C617.638 632.246 617.638 632.244 617.638 632.242C617.702 631.124 618.151 630.247 618.669 630.295C619.186 630.343 619.574 631.317 619.508 632.46C618.928 642.182 616.976 651.8 613.148 661.67C611.89 664.899 610.426 668.117 608.794 671.203C605.469 677.527 601.402 683.21 597.629 687.442C593.021 692.616 588.926 695.891 585.468 698.352C584.632 698.943 583.836 699.48 583.069 699.978C580.632 701.561 578.534 702.75 576.485 703.88C566.955 709.142 558.401 711.779 553.241 712.99C552.323 713.206 551.513 713.378 550.823 713.511C547.293 714.193 543.671 714.665 540 714.882C537.412 715.035 534.832 715.062 532.283 714.958C531.285 714.917 530.281 714.855 529.294 714.775C529.292 714.775 529.29 714.775 529.288 714.775C524.205 714.364 519.336 713.407 515.101 712.125C510.803 710.825 507.084 709.481 503.679 708.01C501.852 707.219 500.118 706.385 498.449 705.479C492.846 702.222 487.564 699.23 478.154 688.078ZM609.89 635.724C609.447 638.194 609.127 640.176 608.911 641.679C609.161 640.415 609.382 639.164 609.579 637.893C609.691 637.171 609.795 636.443 609.89 635.724ZM522.329 708.508C522.748 708.588 523.17 708.665 523.595 708.737C522.439 708.467 521.294 708.168 520.153 707.837C518.754 707.432 517.371 706.983 516 706.489C518.169 707.304 520.31 707.977 522.329 708.508ZM481.579 685.483C486.474 691.455 491.2 694.937 495.54 697.699C496.796 698.492 498.035 699.225 499.266 699.928C499.776 700.219 500.292 700.5 500.817 700.774C497.963 698.872 495.482 696.921 493.528 695.243C487.727 690.191 485.056 686.676 482.753 683.634C482.096 682.746 481.476 681.874 480.864 680.984C480.283 680.301 479.692 679.578 479.112 678.831C478.302 677.787 477.461 676.634 476.691 675.506C475.922 674.379 475.172 673.209 474.468 672.033C473.763 670.855 473.095 669.662 472.463 668.455C471.87 667.325 471.307 666.179 470.785 665.056C470.755 664.991 470.725 664.928 470.696 664.864C470.149 663.683 469.643 662.517 469.185 661.438C468.721 660.346 468.343 659.434 467.988 658.625C467.545 657.613 467.118 656.574 466.717 655.529C466.315 654.484 465.939 653.429 465.589 652.376C465.238 651.321 464.91 650.255 464.607 649.192C464.509 648.849 464.409 648.488 464.316 648.145C464.273 647.986 464.231 647.828 464.189 647.67C464.626 649.787 465.155 651.988 465.784 654.224C466.696 657.468 467.803 660.883 469.295 664.571C471.85 670.827 475.468 677.939 481.579 685.483ZM463.02 614.969C462.889 615.91 462.719 617.268 462.559 619.051C462.521 619.472 462.484 619.918 462.449 620.379C462.451 620.368 462.452 620.357 462.453 620.346C462.6 619.205 462.754 618.139 462.931 617.007C463.248 614.996 463.616 613.022 464.038 611.07C464.465 609.092 464.942 607.154 465.479 605.211C466.013 603.28 466.611 601.339 467.251 599.455C467.903 597.536 468.594 595.684 469.35 593.815C469.59 593.221 469.836 592.629 470.086 592.04C469.475 593.33 468.874 594.703 468.284 596.158C467.813 597.319 467.343 598.552 466.877 599.848C466.699 600.344 466.483 600.945 466.24 601.651C465.283 604.446 463.873 608.909 463.02 614.969ZM477.353 577.708C477.605 577.313 477.862 576.919 478.119 576.536C478.853 575.441 479.596 574.406 480.356 573.398C480.889 572.692 481.428 572.006 481.968 571.338C482.195 571.056 482.426 570.774 482.656 570.497C483.041 570.033 483.427 569.576 483.815 569.127C481.022 572.219 478.525 575.447 476.207 578.999C476.177 579.046 476.147 579.093 476.116 579.141C476.533 578.646 476.946 578.169 477.353 577.708Z" fill="#3DAE79" fill-opacity="0.99"/>
<path d="M652.059 654.558C650.859 660.246 650.719 667.757 647.864 672.961C647.824 673.034 647.785 673.106 647.745 673.178C646.593 675.276 645.192 677.342 643.429 679.715C643.204 680.017 642.969 680.328 642.731 680.642C640.609 683.436 637.958 686.777 634.261 691.053C621.953 705.225 613.53 716.257 610.673 719.998C605.05 727.194 597.152 733.265 585.371 738.986C584.291 739.504 583.17 740.012 582.019 740.517C581.084 740.928 579.802 740.033 579.162 738.532C578.523 737.03 578.722 735.515 579.598 735.13C580.663 734.664 581.696 734.189 582.694 733.712C582.698 733.71 582.703 733.708 582.707 733.706C593.91 728.274 601.219 722.632 606.393 715.944C609.151 712.292 617.242 701.58 629.338 687.859C632.922 683.772 635.497 680.566 637.556 677.897C637.782 677.603 638.001 677.319 638.212 677.04C638.217 677.034 638.222 677.027 638.227 677.021C639.939 674.751 641.235 672.873 642.298 670.963C642.319 670.922 642.341 670.88 642.362 670.839C645.144 665.838 645.125 658.781 646.244 653.534C646.465 652.528 647.937 651.909 649.548 652.163C651.157 652.416 652.288 653.494 652.059 654.558ZM416.009 582.683C416.267 575.794 420.243 567.733 424.967 561.565C429.696 555.297 435.215 550.713 438.018 548.828C440.758 546.975 443.194 544.513 446.101 541.593C446.768 540.924 447.46 540.231 448.183 539.525C450.572 537.193 453.321 534.686 456.647 532.328C468.889 523.757 477.167 519.226 483.075 515.852C484.295 515.172 485.438 514.545 486.511 513.976C486.513 513.975 486.514 513.974 486.516 513.973C490.575 511.828 493.721 510.413 496.895 509.92C502.52 509.078 507.178 508.768 512.809 509.542C520.548 510.554 530.311 509.009 537.063 506.949C537.431 506.831 537.81 506.709 538.194 506.591C538.775 506.412 539.376 506.233 540 506.055C544.636 504.751 550.466 503.41 558.843 503.521C566.74 503.652 573.449 505.543 579.072 507.768C580.691 508.409 582.205 509.075 583.651 509.739C587.304 511.417 590.471 513.081 593.556 514.446C612.728 523.188 621.048 533.073 625.301 539.322C628.547 544.294 629.403 547.783 630.001 550.244C630.179 550.992 630.325 551.655 630.496 552.248C632.003 557.527 633.878 561.748 635.793 566.941C636.213 568.091 636.632 569.293 637.037 570.559C638.38 574.778 639.965 577.523 641.447 579.614C642.094 580.528 642.711 581.318 643.289 582.063C643.3 582.077 643.312 582.09 643.323 582.103C643.404 582.208 643.481 582.312 643.56 582.415C643.62 582.493 643.685 582.568 643.744 582.646C643.786 582.669 643.817 582.692 643.843 582.708C643.863 582.72 643.878 582.731 643.888 582.737C643.891 582.738 643.894 582.739 643.897 582.739C644.074 582.859 644.178 582.983 644.2 583.009C644.237 583.053 644.264 583.095 644.279 583.116C644.358 583.228 644.442 583.379 644.495 583.481C644.632 583.743 644.86 584.202 645.193 584.923C645.539 585.526 645.928 586.086 646.407 586.786C646.438 586.83 646.469 586.874 646.499 586.918C646.967 587.603 647.505 588.413 648.113 589.466C648.668 590.426 647.906 591.768 646.422 592.434C644.939 593.103 643.317 592.891 642.787 591.983C642.237 591.039 641.749 590.317 641.299 589.664C641.269 589.623 641.24 589.582 641.211 589.541C640.741 588.861 640.292 588.224 639.881 587.506C639.744 587.266 639.609 587.016 639.488 586.78C639.234 586.372 638.904 585.926 638.498 585.401C638.417 585.296 638.336 585.186 638.25 585.075C637.694 584.366 637.041 583.551 636.366 582.604C634.782 580.39 633.127 577.505 631.763 573.113C631.401 571.959 631.022 570.849 630.636 569.769C628.838 564.782 626.953 560.448 625.458 555.045C625.251 554.304 625.089 553.555 624.904 552.755C624.343 550.392 623.662 547.514 620.818 543.103C616.975 537.402 609.283 528.11 591.128 519.833C588.045 518.468 584.834 516.772 581.298 515.145C579.951 514.525 578.557 513.921 577.112 513.346C571.849 511.252 565.665 509.508 558.408 509.409C550.111 509.327 544.515 510.758 540 512.105C539.701 512.195 539.408 512.286 539.119 512.376C538.957 512.429 538.796 512.481 538.636 512.534C538.436 512.598 538.239 512.662 538.044 512.725C531.175 514.867 521.384 516.458 513.214 515.31C508.061 514.559 503.811 514.802 498.466 515.571C495.83 515.968 493.267 517.112 489.473 519.101C488.41 519.662 487.245 520.29 485.963 521.005C480.234 524.276 472.234 528.651 460.381 536.892C457.296 539.065 454.779 541.35 452.504 543.56C451.797 544.247 451.11 544.929 450.438 545.601C447.639 548.4 445.056 551.03 441.997 553.074C439.481 554.746 434.321 558.966 429.893 564.801C425.41 570.632 421.978 577.805 421.78 583.635C421.758 584.24 421.735 584.848 421.718 585.455C421.569 590.678 421.775 595.952 423.591 600.431C430.099 611.048 431.187 621.934 431.633 633.5C432.013 645.099 431.928 657.22 434.084 666.676C434.138 666.921 434.193 667.166 434.249 667.411C439.282 689.125 449.629 702.383 452.865 706.626C453.022 706.828 453.166 707.011 453.295 707.175C453.411 707.321 453.518 707.452 453.61 707.568C454.995 709.317 456.419 710.708 457.933 712.115C458.016 712.191 458.099 712.268 458.182 712.344C459.791 713.829 461.489 715.344 463.362 717.263C470.348 724.39 477.055 729.039 483.035 732.521C484.145 733.164 485.232 733.772 486.303 734.342C486.306 734.344 486.309 734.346 486.312 734.348C491.013 736.846 495.317 738.711 499.399 740.425C506.863 743.525 512.271 744.543 516.427 745.115C517.74 745.29 518.951 745.413 520.091 745.509C522.563 745.717 524.718 745.817 526.92 746.015C531.074 746.384 534.925 746.22 538.691 745.874C539.028 745.843 539.364 745.814 539.701 745.78C539.801 745.77 539.9 745.76 540 745.75C543.995 745.334 547.85 744.742 551.919 744.257C552.885 744.142 553.863 745.346 554.107 746.96C554.35 748.572 553.717 749.996 552.685 750.12C548.397 750.633 544.327 751.25 540 751.678C540 751.678 540 751.678 540 751.678C539.643 751.713 539.284 751.75 538.925 751.782C534.952 752.136 530.811 752.294 526.339 751.893C524.092 751.69 521.945 751.583 519.384 751.364C518.164 751.259 516.853 751.126 515.389 750.928C510.931 750.304 505.145 749.207 497.183 745.907C492.924 744.121 488.443 742.172 483.491 739.539C482.355 738.934 481.196 738.292 480.012 737.604C473.695 733.922 466.6 728.999 459.207 721.469C457.343 719.563 455.656 718.05 453.976 716.494C453.883 716.406 453.789 716.318 453.696 716.23C452.124 714.762 450.545 713.221 449.007 711.28C448.802 711.021 448.543 710.687 448.23 710.286C444.824 705.823 433.91 691.855 428.56 668.995C428.545 668.925 428.53 668.854 428.514 668.784C425.14 653.509 425.316 644.755 423.517 638.158C423.091 636.499 422.788 634.948 422.572 633.5C422.111 630.389 422.045 627.847 422.083 625.601C422.093 624.975 422.108 624.384 422.129 623.822C422.221 621.396 422.35 619.482 422.175 617.521C421.673 611.596 420.455 607.128 418.005 601.092C415.939 595.948 415.753 589.901 415.935 584.576C415.936 584.568 415.936 584.56 415.936 584.552C415.957 583.918 415.983 583.294 416.009 582.683ZM656.482 603.682C656.693 604.801 655.556 605.98 653.961 606.311C652.363 606.641 650.921 606.045 650.722 604.984C650.251 602.454 649.692 599.907 649.062 597.409C648.797 596.356 649.823 595.114 651.378 594.625C652.934 594.137 654.445 594.636 654.728 595.747C655.394 598.364 655.984 601.033 656.482 603.682ZM386.394 578.222C386.551 576.716 388.019 575.674 389.636 575.902C391.25 576.133 392.406 577.516 392.257 578.961C392.178 579.729 392.078 581.001 391.979 582.71C391.416 591.439 391.2 611.506 394.989 633.5C396.489 642.556 398.553 651.941 401.026 661.242C401.737 663.917 402.471 666.326 403.211 668.566C406.596 678.18 412.413 684.701 420.648 701.3C442.695 745.275 488.621 778.956 540 779.53C569.776 780.253 599.82 769.668 622.091 750.154C639.483 735.029 653.75 716.776 663.574 696.096C672.862 679.396 681.287 644.533 680.823 635.882C680.892 634.56 682.253 633.49 683.885 633.5C685.515 633.511 686.797 634.644 686.726 636.023C687.215 644.926 678.617 681.077 669.014 698.42C658.841 719.92 644.04 738.911 625.948 754.638C602.694 774.994 571.703 787.126 540 787.657C485.734 789.447 433.178 755.559 409.029 707.285C400.044 689.12 401.056 680.17 397.584 670.365C396.815 668.032 396.046 665.522 395.3 662.71C392.694 652.898 390.545 643.005 389.008 633.5C385.293 611.36 385.511 591.265 386.09 582.256C386.198 580.432 386.307 579.062 386.394 578.222ZM423.676 519.662C434.44 506.9 453.828 492.368 472.838 484.257C482.044 480.182 490.978 477.376 498.178 475.493C509.383 472.607 516.857 472.978 524.023 473.583C524.1 473.59 524.177 473.597 524.254 473.603C529.108 474.064 533.898 474.691 540 475.256C542.894 475.528 546.027 475.795 549.638 476.097C560.932 476.986 576.668 478.659 592.048 483.42C592.06 483.424 592.072 483.429 592.083 483.433C607.289 487.957 623.651 493.115 633.176 500.654C666.235 527.308 673.507 554.3 675.973 566.33C679.952 587.715 691.269 610.769 684.218 632.795C682.65 635.136 678.211 631.221 679.322 627.043C679.352 626.89 679.382 626.738 679.411 626.585C679.684 625.128 679.887 623.829 679.977 622.028C679.964 619.428 679.776 617.501 679.581 615.742C679.859 611.01 673.459 579.525 670.32 567.866C667.95 556.589 655.405 535.315 625.232 511.033C616.847 504.371 605.267 493.584 590.327 489.08C590.286 489.068 590.246 489.055 590.206 489.043C575.538 484.51 560.295 482.871 549.271 481.998C545.816 481.705 542.797 481.444 540 481.177C533.757 480.593 528.903 479.941 524.076 479.473C524.008 479.466 523.94 479.459 523.872 479.452C517.045 478.856 510.172 478.509 499.799 481.171C492.722 483.016 484.036 485.758 475.124 489.71C456.925 497.502 438.49 511.291 428.188 523.479C427.247 524.561 425.475 524.616 424.208 523.586C422.944 522.555 422.697 520.792 423.676 519.662ZM396.806 494.506C427.945 450.514 486.746 425.288 540 431.894C544 432.326 547.915 432.905 551.831 433.629C566.553 434.664 587.051 438.602 606.059 446.309C606.273 446.397 606.486 446.485 606.7 446.573C625.563 454.086 642.535 464.99 653.731 473.814C693.652 505.812 705.807 536.593 709.562 551.296C712.646 565.514 713.535 569.154 715.361 574.671C715.407 574.822 715.452 574.973 715.497 575.124C715.504 575.132 715.512 575.141 715.52 575.149C715.652 575.316 715.743 575.463 715.786 575.539C715.875 575.695 715.931 575.827 715.951 575.876C716 575.99 716.031 576.089 716.043 576.124C716.091 576.267 716.141 576.432 716.17 576.539C716.448 577.538 717.185 580.667 717.602 583.199C718.033 585.794 718.159 587.674 718.254 589.652C718.263 589.853 718.272 590.053 718.28 590.254C718.356 592.037 718.426 593.988 718.575 596.749C718.664 598.431 717.394 599.856 715.769 599.938C714.144 600.018 712.783 598.775 712.697 597.153C712.544 594.323 712.473 592.319 712.4 590.579C712.392 590.386 712.384 590.192 712.376 589.999C712.288 588.165 712.169 586.543 711.803 584.315C711.132 581.126 710.449 578.816 709.793 576.694C707.967 571.152 706.958 567.076 703.817 552.61C700.296 539.104 689.08 509.838 650.189 478.539C639.32 469.961 622.856 459.376 604.602 452.093C604.389 452.007 604.175 451.922 603.961 451.837C585.542 444.357 565.719 440.534 551.485 439.524C547.648 439.228 543.849 439.069 540 439.042C487.783 438.624 439.1 462.943 401.349 498.29C394.544 506.021 388.855 513.508 384.023 520.716C369.913 541.969 362.595 560.75 360.943 579.276C360.632 583.336 358.354 593.607 357.265 608.547C356.952 612.932 356.747 617.707 356.748 622.895C356.749 626.275 356.838 629.794 357.04 633.5C357.596 643.632 359.017 654.9 361.879 666.847C362.695 670.249 363.538 673.288 364.399 676.148C368.339 688.294 371.165 697.981 381.778 719.805C393.899 747.326 429.052 785.13 453.539 798.28C465.303 805.411 472.483 808.644 477.504 811.039C478.907 811.692 480.148 812.26 481.295 812.768C484.296 814.093 486.651 815.064 489.814 816.134C507.43 821.922 521.921 823.673 540 822.999C545.41 822.757 551.113 822.234 557.33 821.301C559.011 821.049 560.651 822.116 560.971 823.718C561.296 825.319 560.125 826.866 558.378 827.131C551.79 828.126 545.739 828.678 540 828.925C521.427 829.588 506.319 827.77 488.012 821.76C484.602 820.608 481.995 819.529 478.844 818.137C477.678 817.619 476.439 817.055 475.065 816.416C469.964 813.984 462.625 810.685 450.534 803.365C425.279 789.817 389.038 750.877 376.555 722.576C365.699 700.288 362.84 690.486 358.783 678.013C357.892 675.063 357.011 671.909 356.16 668.376C353.152 655.864 351.675 644.067 351.112 633.5C350.918 629.846 350.831 626.363 350.827 623.03C350.824 617.688 351.028 612.788 351.347 608.285C352.498 592.583 354.74 582.645 354.991 579.058C356.697 559.333 364.598 539.147 379.328 517.095C384.266 509.761 390.026 502.22 396.806 494.506ZM648.693 786.99C647.369 788.092 645.421 787.948 644.371 786.696C643.322 785.444 643.526 783.587 644.803 782.527C651.557 776.902 655.987 772.432 659.369 768.885C665.57 762.27 668.284 758.864 672.588 753.971C683.628 741.265 692.353 727.42 698.693 714.275C709.311 692.384 713.281 672.758 715.176 662.516C715.476 660.896 717.003 659.792 718.617 660.027C720.228 660.267 721.311 661.802 721.002 663.481C719.065 673.971 715.011 694.067 704.13 716.593C697.599 730.184 688.596 744.543 677.133 757.753C672.826 762.655 670.179 765.975 663.936 772.667C660.454 776.331 655.849 781.019 648.693 786.99Z" fill="#5EC47B" fill-opacity="0.86"/>
<path d="M809.103 581.866C806.971 568.245 801.537 552.046 797.87 538.935C797.82 538.75 797.769 538.566 797.718 538.382C796.234 533.031 794.698 527.502 792.607 520.929C792.341 520.094 792.062 519.229 791.772 518.351C789.18 510.553 785.756 501.03 779.811 488.517C759.698 446.149 730.195 421.572 721.527 414.558C703.629 400.239 684.032 385.291 653.837 370.835C651.074 369.531 648.217 368.236 645.263 366.967C642.876 365.941 641.254 364.216 641.66 363.059C642.066 361.904 644.385 361.772 646.819 362.815C649.759 364.075 652.605 365.356 655.352 366.647C655.364 366.653 655.377 366.659 655.39 366.665C686.285 381.424 705.737 396.326 723.546 410.447C732.562 417.687 763.368 443.192 784.169 487.323C790.231 500.172 793.716 509.953 796.338 517.93C796.623 518.805 796.892 519.651 797.153 520.479C797.159 520.499 797.165 520.518 797.171 520.538C799.286 527.267 800.749 532.638 802.182 537.845C802.213 537.956 802.245 538.066 802.276 538.177C806.014 551.639 811.382 567.789 813.481 581.193C813.892 583.751 813.206 585.971 811.994 586.134C810.782 586.297 809.509 584.379 809.103 581.866ZM299.355 733.862C305.326 745.104 312.167 760.289 319.043 773.462C325.873 786.756 332.83 798.5 336.128 804.093C339.324 809.549 343.562 815.174 349.042 821.497C350.301 822.948 351.627 824.435 353.016 825.956C357.603 830.98 362.896 836.405 368.87 842.234C390.958 863.575 408.79 873.693 421.434 880.347C424.059 881.701 426.534 882.911 428.859 884.007C428.863 884.009 428.866 884.011 428.87 884.012C437.664 888.143 444.392 890.8 450.463 893.641C461.277 898.639 470.4 902.241 481.575 906.481C497.003 912.503 520.718 915.024 535.899 913.59C536.734 913.522 537.587 913.446 538.451 913.368C539.756 913.249 541.097 913.117 542.481 912.972C552.766 911.847 565.247 910.203 582.564 906.456C598.859 902.873 612.806 898.978 624.972 894.923C628.462 893.757 631.761 892.592 634.919 891.406C642.882 888.41 649.872 885.348 656.21 882C695.345 860.748 713.795 842.444 726.113 832.07C735.422 823.813 740.75 819.16 744.63 815.819C745.797 814.802 746.825 813.895 747.759 813.011C756.07 805.117 762.759 796.945 770.129 786.626C771.76 784.333 773.428 781.919 775.138 779.366C780.839 770.844 784.097 763.878 786.341 758.332C787.322 755.898 788.109 753.726 788.823 751.68C788.836 751.642 788.848 751.604 788.861 751.566C788.961 751.28 789.061 750.997 789.158 750.715C789.232 750.503 789.301 750.289 789.374 750.076C789.388 749.986 789.406 749.908 789.418 749.849C789.427 749.802 789.435 749.766 789.44 749.742C789.44 749.738 789.44 749.733 789.44 749.728C789.529 749.304 789.641 748.955 789.663 748.883C789.703 748.758 789.743 748.649 789.763 748.593C789.866 748.296 790.012 747.92 790.109 747.67C790.361 747.028 790.806 745.915 791.483 744.188C792.028 742.665 792.497 741.184 793.058 739.334C793.093 739.218 793.128 739.101 793.163 738.984C793.708 737.177 794.335 735.058 795.119 732.398C795.832 729.981 797.396 728.062 798.655 728.128C799.915 728.191 800.396 730.235 799.679 732.701C798.938 735.249 798.353 737.268 797.806 739.107C797.772 739.224 797.738 739.34 797.703 739.457C797.13 741.374 796.571 743.177 795.88 745.109C795.649 745.755 795.402 746.416 795.166 747.032C794.768 748.151 794.338 749.434 793.815 750.967C793.71 751.275 793.599 751.591 793.487 751.915C792.771 753.996 791.918 756.404 790.841 759.101C788.323 765.384 784.661 773.205 778.329 782.606C776.664 785.074 775.024 787.439 773.393 789.722C765.863 800.231 758.561 809.138 749.541 817.585C748.303 818.741 747.073 819.81 745.753 820.94C741.816 824.271 737.167 828.259 728.398 835.995C716.428 845.979 698.158 864.182 658.619 885.741C651.86 889.328 644.272 892.64 636.024 895.722C632.877 896.898 629.638 898.043 626.303 899.156C614.118 903.212 600.363 907.049 584.376 910.623C566.063 914.641 553.252 916.336 542.521 917.508C541.811 917.583 541.111 917.653 540.419 917.72C540.034 917.759 539.648 917.796 539.262 917.833C538.783 917.878 538.308 917.92 537.836 917.961C521.411 919.619 495.681 916.998 478.399 910.12C467.559 905.924 458.697 902.397 447.772 897.304C442.409 894.765 436.542 892.48 427.76 888.395C425.302 887.245 422.611 885.936 419.664 884.42C406.565 877.547 388.15 867.097 365.481 845.128C359.611 839.381 354.463 834.108 349.823 829.034C348.383 827.457 346.988 825.892 345.642 824.34C340.045 817.884 335.208 811.534 331.49 805.102C328.408 799.81 321.615 788.236 314.886 775.088C308.028 761.869 301.595 747.6 296.192 737.598C295.626 736.56 295.064 735.507 294.508 734.45C289.704 725.352 285.374 715.764 281.128 708.081C269.68 691.499 262.769 664.347 262.313 635.965C261.61 607.207 267.539 577.758 274.155 555.245C274.325 554.656 274.496 554.067 274.67 553.479C290.075 501.498 313.933 469.194 321.58 458.453C321.948 457.949 322.285 457.493 322.588 457.083C322.86 456.717 323.104 456.386 323.321 456.095C326.584 451.746 329.482 447.865 332.604 443.889C332.775 443.672 332.945 443.455 333.117 443.238C336.441 439.041 340.044 434.722 344.651 429.925C361.82 412.122 377.777 399.537 392.259 389.681C394.945 387.859 397.591 386.138 400.198 384.497C400.206 384.493 400.214 384.488 400.221 384.483C411.666 377.293 422.346 371.701 432.801 367.115C451.902 358.828 465.501 354.8 476.047 351.844C479.373 350.931 482.456 350.143 485.364 349.445C491.668 347.937 497.241 346.82 503.018 345.957C513.911 344.344 523.978 343.302 533.951 342.785C534.842 342.739 535.733 342.701 536.625 342.664C536.889 342.653 537.154 342.642 537.418 342.632C548.004 342.234 558.504 342.448 569.537 343.653C572.17 343.941 574.212 345.213 574.107 346.433C573.999 347.653 571.827 348.367 569.246 348.082C558.442 346.896 548.132 346.672 537.458 347.079C537.458 347.079 537.458 347.079 537.458 347.079C536.576 347.113 535.691 347.154 534.806 347.197C525.011 347.681 514.928 348.688 504.018 350.29C498.535 351.103 493.365 352.124 487.276 353.557C484.376 354.242 481.269 355.027 477.815 355.966C467.279 358.892 453.724 362.886 434.751 371.102C424.59 375.552 414.207 380.96 402.943 388.011C400.359 389.63 397.731 391.339 395.053 393.149C380.756 402.852 364.954 415.278 347.951 432.89C343.662 437.351 340.289 441.366 337.018 445.476C336.834 445.706 336.651 445.936 336.469 446.166C333.414 450.039 330.393 454.063 326.996 458.587C326.542 459.192 325.963 459.966 325.275 460.904C317.729 471.488 294.115 503.41 278.899 554.804C278.851 554.962 278.804 555.121 278.757 555.279C268.987 589.743 268.077 610.259 268.554 625.369C268.73 629.165 268.919 632.662 269.109 635.904C269.521 642.867 269.919 648.503 270.327 653.5C270.442 654.892 270.56 656.206 270.677 657.457C271.186 662.85 271.714 667.114 272.565 671.33C275.184 684.022 278.506 692.919 283.886 702.961C288.46 711.489 293.115 721.912 297.713 730.741C297.72 730.754 297.727 730.767 297.733 730.781C298.278 731.832 298.818 732.862 299.355 733.862ZM802.254 696.783C802.827 694.347 804.222 692.572 805.417 692.836C806.61 693.101 807.143 695.344 806.559 697.825C805.177 703.703 803.591 709.625 801.845 715.406C801.108 717.852 799.534 719.515 798.373 719.135C797.21 718.754 796.889 716.503 797.612 714.099C799.331 708.406 800.893 702.572 802.254 696.783ZM316.787 717.241C317.721 719.22 317.72 721.504 316.767 722.39C315.812 723.265 314.232 722.364 313.27 720.361C312.762 719.301 311.911 717.561 310.805 715.189C305.185 703.237 292.789 673.944 289.796 635.721C288.519 620.111 288.771 603.194 291.127 586.196C291.802 581.308 292.532 576.868 293.302 572.71C296.95 555.056 297.104 539.405 312.678 507.71C354.413 423.949 444.755 366.876 537.643 367.967C591.904 367.75 645.592 385.881 689.548 417.741C724.008 442.549 751.495 476.64 769.551 515.149C786.815 546.862 794.775 611.962 793.262 626.983C793.283 629.363 792.272 631.288 791.049 631.271C789.826 631.254 788.853 629.339 788.832 627.003C790.31 612.32 782.566 548.471 765.696 517.371C748.021 479.536 721.101 446.033 687.349 421.634C644.052 390.108 590.805 372.91 537.697 374.062C446.909 374.719 361.473 431.716 321.341 512.3C306.559 542.415 301.425 555.512 297.783 572.917C297.015 577.015 296.285 581.403 295.605 586.26C293.215 603.243 292.977 620.141 294.281 635.681C297.223 672.155 308.834 700.127 314.291 711.927C315.4 714.345 316.264 716.135 316.787 717.241ZM367.81 807.196C384.722 825.663 412.461 848.742 440.616 862.445C454.218 869.279 467.578 874.203 478.476 877.326C495.395 882.104 506.229 884.653 517.167 886.867C517.285 886.889 517.404 886.912 517.52 886.934C524.919 888.357 532.447 889.512 542.276 889.873C546.935 890.033 552.016 890.003 557.865 889.62C576.198 888.526 601.371 883.19 624.835 873.143C624.854 873.136 624.872 873.128 624.891 873.121C648.444 863.301 668.646 847.127 683.049 835.971C733.509 796.313 752.556 759.123 763.362 742.012C781.998 710.68 785.989 669.184 790.806 632.5C791.927 628.35 795.458 635.353 794.231 642.969C794.195 643.243 794.158 643.517 794.121 643.79C793.772 646.396 793.459 648.705 793.086 651.914C792.646 656.568 792.313 660.026 791.974 663.197C792.521 671.694 778.79 728.394 766.639 745.296C756.146 761.476 741.977 801.926 688.926 843.818C674.051 855.299 650.911 867.03 627.007 877.049C626.942 877.077 626.876 877.104 626.811 877.132C603.097 887.33 577.212 892.91 558.221 894.04C552.283 894.431 547.089 894.469 542.315 894.314C531.652 893.943 523.576 892.671 515.797 891.146C515.687 891.124 515.577 891.102 515.467 891.079C504.453 888.808 493.918 886.283 477.312 881.599C465.957 878.349 452.188 873.256 438.251 866.221C409.719 852.251 381.888 829.058 364.79 810.455C363.221 808.79 362.661 806.694 363.512 805.81C364.364 804.927 366.275 805.564 367.81 807.196ZM388.484 788.898C431.211 828.724 484.68 853.647 541.987 857.353C546.306 857.637 550.568 857.809 554.883 857.862C570.905 856.979 593.198 853.304 614.245 845.34C614.483 845.253 614.721 845.166 614.959 845.078C635.831 837.33 655.034 825.599 667.721 815.771C713.009 780.128 728.498 745.562 738.31 730.422C747.067 715.608 748.257 710.798 750.408 704.088C750.466 703.904 750.523 703.719 750.58 703.534C750.58 703.521 750.58 703.508 750.58 703.494C750.595 703.245 750.622 703.04 750.638 702.935C750.671 702.721 750.71 702.551 750.725 702.487C750.758 702.339 750.793 702.218 750.805 702.174C750.853 701.996 750.913 701.794 750.953 701.664C751.331 700.459 752.521 696.711 753.459 693.709C754.426 690.632 755.171 688.46 755.947 686.156C756.025 685.922 756.104 685.689 756.182 685.455C756.872 683.376 757.612 681.082 758.503 677.761C759.043 675.743 760.387 674.455 761.541 674.908C762.693 675.361 763.204 677.413 762.649 679.468C761.684 683.037 760.877 685.503 760.163 687.628C760.084 687.863 760.004 688.099 759.923 688.334C759.161 690.57 758.488 692.537 757.611 695.309C756.438 699.346 755.578 702.316 754.752 705.058C752.49 712.135 751.062 717.774 741.661 733.533C732.05 748.069 716.906 782.569 670.466 819.246C657.499 829.298 637.874 841.29 616.569 849.204C616.32 849.298 616.071 849.392 615.822 849.485C594.307 857.627 571.552 861.372 555.221 862.278C550.817 862.55 546.459 862.694 542.035 862.714C482.994 863.359 423.916 838.563 385.447 792.137C377.308 783.561 370.586 775.015 364.86 766.772C348.09 742.338 339.318 721.194 330.526 700.969C328.656 696.503 324.567 684.447 321.466 666.277C320.564 660.941 319.762 655.091 319.155 648.671C318.759 644.491 318.45 640.112 318.256 635.468C317.726 622.771 318.08 608.541 320.016 593.153C320.568 588.77 321.165 584.829 321.809 581.098C324.879 565.262 327.022 552.26 340.491 524.237C355.941 488.778 402.034 442.221 432.735 427.765C447.581 419.748 456.592 416.674 462.909 414.487C464.672 413.897 466.233 413.407 467.669 412.968C471.424 411.826 474.348 411.01 478.177 409.943C499.489 404.218 516.217 401.541 537.932 400.567C544.431 400.332 551.308 400.335 558.867 400.761C560.919 400.877 562.63 402.008 562.645 403.238C562.665 404.47 561.026 405.339 559.018 405.222C551.427 404.78 544.511 404.772 537.972 405.011C516.814 405.963 500.287 408.582 479.301 414.23C475.389 415.322 472.32 416.18 468.582 417.326C467.198 417.752 465.724 418.22 464.087 418.771C458.005 420.886 449.276 423.865 434.808 431.682C404.792 445.822 359.643 491.423 344.507 526.119C331.405 553.348 329.31 565.864 326.274 581.351C325.634 585.017 325.037 588.914 324.483 593.25C322.521 608.6 322.167 622.798 322.702 635.429C322.887 639.795 323.176 643.93 323.543 647.862C324.129 654.168 324.906 659.891 325.779 665.117C328.876 683.322 332.709 694.408 334.246 698.189C343.064 718.791 352.075 740.427 368.733 764.569C374.3 772.555 380.771 780.751 388.484 788.898ZM667.789 444.001C666.1 442.808 665.2 440.996 665.794 439.917C666.387 438.84 668.286 438.92 670.016 440.135C679.132 446.562 685.313 451.74 690.064 455.879C698.789 463.611 702.739 467.708 708.256 474.119C722.421 490.782 733.681 508.844 741.882 525.992C755.612 554.536 760.799 580.158 762.725 593.598C763.032 595.733 762.259 597.557 761.046 597.712C759.832 597.858 758.642 596.316 758.34 594.226C756.46 581.119 751.42 556.145 738.034 528.207C729.995 511.341 718.929 493.537 704.95 477.076C699.703 470.972 696.055 467.168 687.709 459.722C683.066 455.652 676.954 450.488 667.789 444.001Z" fill="#5EC47B" fill-opacity="0.86"/>
</g>
</svg>
